M48
; DRILL file {KiCad 7.0.11+dfsg-1build4} date Tue 22 Sep 2026 12:35:24 PM KST
; FORMAT={-:-/ absolute / metric / decimal}
; #@! TF.CreationDate,2026-09-22T12:35:24+09:00
; #@! TF.GenerationSoftware,Kicad,Pcbnew,7.0.11+dfsg-1build4
; #@! TF.FileFunction,MixedPlating,1,2
FMAT,2
METRIC
; #@! TA.AperFunction,Plated,PTH,ComponentDrill
T1C1.000
; #@! TA.AperFunction,NonPlated,NPTH,ComponentDrill
T2C2.700
%
G90
G05
T1
X108.37Y-46.23
X108.37Y-46.23
X108.37Y-48.77
X108.37Y-48.77
X110.91Y-46.23
X110.91Y-46.23
X110.91Y-48.77
X110.91Y-48.77
X113.45Y-46.23
X113.45Y-46.23
X113.45Y-48.77
X113.45Y-48.77
X115.99Y-46.23
X115.99Y-46.23
X115.99Y-48.77
X115.99Y-48.77
X118.53Y-46.23
X118.53Y-46.23
X118.53Y-48.77
X118.53Y-48.77
X121.07Y-46.23
X121.07Y-46.23
X121.07Y-48.77
X121.07Y-48.77
X123.61Y-46.23
X123.61Y-46.23
X123.61Y-48.77
X123.61Y-48.77
X126.15Y-46.23
X126.15Y-46.23
X126.15Y-48.77
X126.15Y-48.77
X128.69Y-46.23
X128.69Y-46.23
X128.69Y-48.77
X128.69Y-48.77
X131.23Y-46.23
X131.23Y-46.23
X131.23Y-48.77
X131.23Y-48.77
X133.77Y-46.23
X133.77Y-46.23
X133.77Y-48.77
X133.77Y-48.77
X136.31Y-46.23
X136.31Y-46.23
X136.31Y-48.77
X136.31Y-48.77
X138.85Y-46.23
X138.85Y-46.23
X138.85Y-48.77
X138.85Y-48.77
X141.39Y-46.23
X141.39Y-46.23
X141.39Y-48.77
X141.39Y-48.77
X143.93Y-46.23
X143.93Y-46.23
X143.93Y-48.77
X143.93Y-48.77
X146.47Y-46.23
X146.47Y-46.23
X146.47Y-48.77
X146.47Y-48.77
X149.01Y-46.23
X149.01Y-46.23
X149.01Y-48.77
X149.01Y-48.77
X151.55Y-46.23
X151.55Y-46.23
X151.55Y-48.77
X151.55Y-48.77
X154.09Y-46.23
X154.09Y-46.23
X154.09Y-48.77
X154.09Y-48.77
X156.63Y-46.23
X156.63Y-46.23
X156.63Y-48.77
X156.63Y-48.77
T2
X103.5Y-47.5
X103.5Y-96.5
X161.5Y-47.5
X161.5Y-96.5
M30
