%TF.GenerationSoftware,KiCad,Pcbnew,7.0.11+dfsg-1build4*%
%TF.CreationDate,2026-09-22T12:35:17+09:00*%
%TF.ProjectId,t_eth_elite_hat_adapter,745f6574-685f-4656-9c69-74655f686174,rev?*%
%TF.SameCoordinates,Original*%
%TF.FileFunction,Copper,L1,Top*%
%TF.FilePolarity,Positive*%
%FSLAX46Y46*%
G04 Gerber Fmt 4.6, Leading zero omitted, Abs format (unit mm)*
G04 Created by KiCad (PCBNEW 7.0.11+dfsg-1build4) date 2026-09-22 12:35:17*
%MOMM*%
%LPD*%
G01*
G04 APERTURE LIST*
%TA.AperFunction,ComponentPad*%
%ADD10R,1.700000X1.700000*%
%TD*%
%TA.AperFunction,ComponentPad*%
%ADD11O,1.700000X1.700000*%
%TD*%
%TA.AperFunction,Conductor*%
%ADD12C,0.300000*%
%TD*%
G04 APERTURE END LIST*
D10*
%TO.P,J1,1*%
%TO.N,+3V3*%
X108370000Y-48770000D03*
D11*
%TO.P,J1,2*%
%TO.N,+5V*%
X108370000Y-46230000D03*
%TO.P,J1,3*%
%TO.N,/GPIO2{slash}SDA1*%
X110910000Y-48770000D03*
%TO.P,J1,4*%
%TO.N,+5V*%
X110910000Y-46230000D03*
%TO.P,J1,5*%
%TO.N,/GPIO3{slash}SCL1*%
X113450000Y-48770000D03*
%TO.P,J1,6*%
%TO.N,GND*%
X113450000Y-46230000D03*
%TO.P,J1,7*%
%TO.N,/GPIO4{slash}GPCLK0*%
X115990000Y-48770000D03*
%TO.P,J1,8*%
%TO.N,/GPIO14{slash}TXD0*%
X115990000Y-46230000D03*
%TO.P,J1,9*%
%TO.N,GND*%
X118530000Y-48770000D03*
%TO.P,J1,10*%
%TO.N,/GPIO15{slash}RXD0*%
X118530000Y-46230000D03*
%TO.P,J1,11*%
%TO.N,/GPIO17*%
X121070000Y-48770000D03*
%TO.P,J1,12*%
%TO.N,/GPIO18{slash}PCM.CLK*%
X121070000Y-46230000D03*
%TO.P,J1,13*%
%TO.N,/GPIO27*%
X123610000Y-48770000D03*
%TO.P,J1,14*%
%TO.N,GND*%
X123610000Y-46230000D03*
%TO.P,J1,15*%
%TO.N,/GPIO22*%
X126150000Y-48770000D03*
%TO.P,J1,16*%
%TO.N,/GPIO23*%
X126150000Y-46230000D03*
%TO.P,J1,17*%
%TO.N,+3V3*%
X128690000Y-48770000D03*
%TO.P,J1,18*%
%TO.N,/GPIO24*%
X128690000Y-46230000D03*
%TO.P,J1,19*%
%TO.N,/GPIO10{slash}SPI0.MOSI*%
X131230000Y-48770000D03*
%TO.P,J1,20*%
%TO.N,GND*%
X131230000Y-46230000D03*
%TO.P,J1,21*%
%TO.N,/GPIO9{slash}SPI0.MISO*%
X133770000Y-48770000D03*
%TO.P,J1,22*%
%TO.N,/GPIO25*%
X133770000Y-46230000D03*
%TO.P,J1,23*%
%TO.N,/GPIO11{slash}SPI0.SCLK*%
X136310000Y-48770000D03*
%TO.P,J1,24*%
%TO.N,/GPIO8{slash}SPI0.CE0*%
X136310000Y-46230000D03*
%TO.P,J1,25*%
%TO.N,GND*%
X138850000Y-48770000D03*
%TO.P,J1,26*%
%TO.N,/GPIO7{slash}SPI0.CE1*%
X138850000Y-46230000D03*
%TO.P,J1,27*%
%TO.N,/ID_SDA*%
X141390000Y-48770000D03*
%TO.P,J1,28*%
%TO.N,/ID_SCL*%
X141390000Y-46230000D03*
%TO.P,J1,29*%
%TO.N,/GPIO5*%
X143930000Y-48770000D03*
%TO.P,J1,30*%
%TO.N,GND*%
X143930000Y-46230000D03*
%TO.P,J1,31*%
%TO.N,/GPIO6*%
X146470000Y-48770000D03*
%TO.P,J1,32*%
%TO.N,/GPIO12{slash}PWM0*%
X146470000Y-46230000D03*
%TO.P,J1,33*%
%TO.N,/GPIO13{slash}PWM1*%
X149010000Y-48770000D03*
%TO.P,J1,34*%
%TO.N,GND*%
X149010000Y-46230000D03*
%TO.P,J1,35*%
%TO.N,/GPIO19{slash}PCM.FS*%
X151550000Y-48770000D03*
%TO.P,J1,36*%
%TO.N,/GPIO16*%
X151550000Y-46230000D03*
%TO.P,J1,37*%
%TO.N,/GPIO26*%
X154090000Y-48770000D03*
%TO.P,J1,38*%
%TO.N,/GPIO20{slash}PCM.DIN*%
X154090000Y-46230000D03*
%TO.P,J1,39*%
%TO.N,GND*%
X156630000Y-48770000D03*
%TO.P,J1,40*%
%TO.N,/GPIO21{slash}PCM.DOUT*%
X156630000Y-46230000D03*
%TD*%
D10*
%TO.P,J2,1*%
%TO.N,+3V3*%
X108370000Y-48770000D03*
D11*
%TO.P,J2,2*%
%TO.N,+5V*%
X108370000Y-46230000D03*
%TO.P,J2,3*%
%TO.N,/GPIO2{slash}SDA1*%
X110910000Y-48770000D03*
%TO.P,J2,4*%
%TO.N,+5V*%
X110910000Y-46230000D03*
%TO.P,J2,5*%
%TO.N,/GPIO3{slash}SCL1*%
X113450000Y-48770000D03*
%TO.P,J2,6*%
%TO.N,GND*%
X113450000Y-46230000D03*
%TO.P,J2,7*%
%TO.N,/GPIO4{slash}GPCLK0*%
X115990000Y-48770000D03*
%TO.P,J2,8*%
%TO.N,/GPIO14{slash}TXD0*%
X115990000Y-46230000D03*
%TO.P,J2,9*%
%TO.N,GND*%
X118530000Y-48770000D03*
%TO.P,J2,10*%
%TO.N,/GPIO15{slash}RXD0*%
X118530000Y-46230000D03*
%TO.P,J2,11*%
%TO.N,/GPIO17*%
X121070000Y-48770000D03*
%TO.P,J2,12*%
%TO.N,/GPIO18{slash}PCM.CLK*%
X121070000Y-46230000D03*
%TO.P,J2,13*%
%TO.N,/GPIO27*%
X123610000Y-48770000D03*
%TO.P,J2,14*%
%TO.N,GND*%
X123610000Y-46230000D03*
%TO.P,J2,15*%
%TO.N,/GPIO22*%
X126150000Y-48770000D03*
%TO.P,J2,16*%
%TO.N,/GPIO23*%
X126150000Y-46230000D03*
%TO.P,J2,17*%
%TO.N,+3V3*%
X128690000Y-48770000D03*
%TO.P,J2,18*%
%TO.N,/GPIO24*%
X128690000Y-46230000D03*
%TO.P,J2,19*%
%TO.N,/GPIO10{slash}SPI0.MOSI*%
X131230000Y-48770000D03*
%TO.P,J2,20*%
%TO.N,GND*%
X131230000Y-46230000D03*
%TO.P,J2,21*%
%TO.N,/GPIO9{slash}SPI0.MISO*%
X133770000Y-48770000D03*
%TO.P,J2,22*%
%TO.N,/GPIO25*%
X133770000Y-46230000D03*
%TO.P,J2,23*%
%TO.N,/GPIO11{slash}SPI0.SCLK*%
X136310000Y-48770000D03*
%TO.P,J2,24*%
%TO.N,/GPIO8{slash}SPI0.CE0*%
X136310000Y-46230000D03*
%TO.P,J2,25*%
%TO.N,GND*%
X138850000Y-48770000D03*
%TO.P,J2,26*%
%TO.N,/GPIO7{slash}SPI0.CE1*%
X138850000Y-46230000D03*
%TO.P,J2,27*%
%TO.N,/ID_SDA*%
X141390000Y-48770000D03*
%TO.P,J2,28*%
%TO.N,/ID_SCL*%
X141390000Y-46230000D03*
%TO.P,J2,29*%
%TO.N,/GPIO5*%
X143930000Y-48770000D03*
%TO.P,J2,30*%
%TO.N,GND*%
X143930000Y-46230000D03*
%TO.P,J2,31*%
%TO.N,/GPIO6*%
X146470000Y-48770000D03*
%TO.P,J2,32*%
%TO.N,/GPIO12{slash}PWM0*%
X146470000Y-46230000D03*
%TO.P,J2,33*%
%TO.N,/GPIO13{slash}PWM1*%
X149010000Y-48770000D03*
%TO.P,J2,34*%
%TO.N,GND*%
X149010000Y-46230000D03*
%TO.P,J2,35*%
%TO.N,/GPIO19{slash}PCM.FS*%
X151550000Y-48770000D03*
%TO.P,J2,36*%
%TO.N,/GPIO16*%
X151550000Y-46230000D03*
%TO.P,J2,37*%
%TO.N,/GPIO26*%
X154090000Y-48770000D03*
%TO.P,J2,38*%
%TO.N,/GPIO20{slash}PCM.DIN*%
X154090000Y-46230000D03*
%TO.P,J2,39*%
%TO.N,GND*%
X156630000Y-48770000D03*
%TO.P,J2,40*%
%TO.N,/GPIO21{slash}PCM.DOUT*%
X156630000Y-46230000D03*
%TD*%
D12*
%TO.N,+3V3*%
X108370000Y-51770000D02*
X128690000Y-51770000D01*
X108370000Y-48770000D02*
X108370000Y-51770000D01*
X128690000Y-51770000D02*
X128690000Y-48770000D01*
%TO.N,+5V*%
X108370000Y-46230000D02*
X110910000Y-46230000D01*
%TD*%
%TA.AperFunction,Conductor*%
%TO.N,GND*%
G36*
X118070507Y-48560156D02*
G01*
X118030000Y-48698111D01*
X118030000Y-48841889D01*
X118070507Y-48979844D01*
X118096314Y-49020000D01*
X117230861Y-49020000D01*
X117172670Y-49001093D01*
X117136706Y-48951593D01*
X117132283Y-48911867D01*
X117145429Y-48770000D01*
X117132283Y-48628133D01*
X117145741Y-48568447D01*
X117191711Y-48528070D01*
X117230861Y-48520000D01*
X118096314Y-48520000D01*
X118070507Y-48560156D01*
G37*
%TD.AperFunction*%
%TA.AperFunction,Conductor*%
G36*
X118723481Y-47383494D02*
G01*
X118767929Y-47425542D01*
X118780000Y-47472916D01*
X118780000Y-48334498D01*
X118672315Y-48285320D01*
X118565763Y-48270000D01*
X118494237Y-48270000D01*
X118387685Y-48285320D01*
X118280000Y-48334498D01*
X118280000Y-47472916D01*
X118298907Y-47414725D01*
X118348407Y-47378761D01*
X118397189Y-47375602D01*
X118423390Y-47380500D01*
X118423392Y-47380500D01*
X118636608Y-47380500D01*
X118636610Y-47380500D01*
X118662809Y-47375602D01*
X118723481Y-47383494D01*
G37*
%TD.AperFunction*%
%TA.AperFunction,Conductor*%
G36*
X138390507Y-48560156D02*
G01*
X138350000Y-48698111D01*
X138350000Y-48841889D01*
X138390507Y-48979844D01*
X138416314Y-49020000D01*
X137550861Y-49020000D01*
X137492670Y-49001093D01*
X137456706Y-48951593D01*
X137452283Y-48911867D01*
X137465429Y-48770000D01*
X137452283Y-48628133D01*
X137465741Y-48568447D01*
X137511711Y-48528070D01*
X137550861Y-48520000D01*
X138416314Y-48520000D01*
X138390507Y-48560156D01*
G37*
%TD.AperFunction*%
%TA.AperFunction,Conductor*%
G36*
X139043481Y-47383494D02*
G01*
X139087929Y-47425542D01*
X139100000Y-47472916D01*
X139100000Y-48334498D01*
X138992315Y-48285320D01*
X138885763Y-48270000D01*
X138814237Y-48270000D01*
X138707685Y-48285320D01*
X138600000Y-48334498D01*
X138600000Y-47472916D01*
X138618907Y-47414725D01*
X138668407Y-47378761D01*
X138717189Y-47375602D01*
X138743390Y-47380500D01*
X138743392Y-47380500D01*
X138956608Y-47380500D01*
X138956610Y-47380500D01*
X138982809Y-47375602D01*
X139043481Y-47383494D01*
G37*
%TD.AperFunction*%
%TA.AperFunction,Conductor*%
G36*
X156170507Y-48560156D02*
G01*
X156130000Y-48698111D01*
X156130000Y-48841889D01*
X156170507Y-48979844D01*
X156196314Y-49020000D01*
X155330861Y-49020000D01*
X155272670Y-49001093D01*
X155236706Y-48951593D01*
X155232283Y-48911867D01*
X155245429Y-48770000D01*
X155232283Y-48628133D01*
X155245741Y-48568447D01*
X155291711Y-48528070D01*
X155330861Y-48520000D01*
X156196314Y-48520000D01*
X156170507Y-48560156D01*
G37*
%TD.AperFunction*%
%TA.AperFunction,Conductor*%
G36*
X156823481Y-47383494D02*
G01*
X156867929Y-47425542D01*
X156880000Y-47472916D01*
X156880000Y-48334498D01*
X156772315Y-48285320D01*
X156665763Y-48270000D01*
X156594237Y-48270000D01*
X156487685Y-48285320D01*
X156380000Y-48334498D01*
X156380000Y-47472916D01*
X156398907Y-47414725D01*
X156448407Y-47378761D01*
X156497189Y-47375602D01*
X156523390Y-47380500D01*
X156523392Y-47380500D01*
X156736608Y-47380500D01*
X156736610Y-47380500D01*
X156762809Y-47375602D01*
X156823481Y-47383494D01*
G37*
%TD.AperFunction*%
%TA.AperFunction,Conductor*%
G36*
X112990507Y-46020156D02*
G01*
X112950000Y-46158111D01*
X112950000Y-46301889D01*
X112990507Y-46439844D01*
X113016314Y-46480000D01*
X112150861Y-46480000D01*
X112092670Y-46461093D01*
X112056706Y-46411593D01*
X112052283Y-46371867D01*
X112065429Y-46230000D01*
X112052283Y-46088133D01*
X112065741Y-46028447D01*
X112111711Y-45988070D01*
X112150861Y-45980000D01*
X113016314Y-45980000D01*
X112990507Y-46020156D01*
G37*
%TD.AperFunction*%
%TA.AperFunction,Conductor*%
G36*
X123150507Y-46020156D02*
G01*
X123110000Y-46158111D01*
X123110000Y-46301889D01*
X123150507Y-46439844D01*
X123176314Y-46480000D01*
X122310861Y-46480000D01*
X122252670Y-46461093D01*
X122216706Y-46411593D01*
X122212283Y-46371867D01*
X122225429Y-46230000D01*
X122212283Y-46088133D01*
X122225741Y-46028447D01*
X122271711Y-45988070D01*
X122310861Y-45980000D01*
X123176314Y-45980000D01*
X123150507Y-46020156D01*
G37*
%TD.AperFunction*%
%TA.AperFunction,Conductor*%
G36*
X130770507Y-46020156D02*
G01*
X130730000Y-46158111D01*
X130730000Y-46301889D01*
X130770507Y-46439844D01*
X130796314Y-46480000D01*
X129930861Y-46480000D01*
X129872670Y-46461093D01*
X129836706Y-46411593D01*
X129832283Y-46371867D01*
X129845429Y-46230000D01*
X129832283Y-46088133D01*
X129845741Y-46028447D01*
X129891711Y-45988070D01*
X129930861Y-45980000D01*
X130796314Y-45980000D01*
X130770507Y-46020156D01*
G37*
%TD.AperFunction*%
%TA.AperFunction,Conductor*%
G36*
X143470507Y-46020156D02*
G01*
X143430000Y-46158111D01*
X143430000Y-46301889D01*
X143470507Y-46439844D01*
X143496314Y-46480000D01*
X142630861Y-46480000D01*
X142572670Y-46461093D01*
X142536706Y-46411593D01*
X142532283Y-46371867D01*
X142545429Y-46230000D01*
X142532283Y-46088133D01*
X142545741Y-46028447D01*
X142591711Y-45988070D01*
X142630861Y-45980000D01*
X143496314Y-45980000D01*
X143470507Y-46020156D01*
G37*
%TD.AperFunction*%
%TA.AperFunction,Conductor*%
G36*
X148550507Y-46020156D02*
G01*
X148510000Y-46158111D01*
X148510000Y-46301889D01*
X148550507Y-46439844D01*
X148576314Y-46480000D01*
X147710861Y-46480000D01*
X147652670Y-46461093D01*
X147616706Y-46411593D01*
X147612283Y-46371867D01*
X147625429Y-46230000D01*
X147612283Y-46088133D01*
X147625741Y-46028447D01*
X147671711Y-45988070D01*
X147710861Y-45980000D01*
X148576314Y-45980000D01*
X148550507Y-46020156D01*
G37*
%TD.AperFunction*%
%TA.AperFunction,Conductor*%
G36*
X162002992Y-44500681D02*
G01*
X162295309Y-44518362D01*
X162307164Y-44519802D01*
X162537169Y-44561952D01*
X162589324Y-44589324D01*
X164410674Y-46410674D01*
X164438048Y-46462833D01*
X164480196Y-46692828D01*
X164481637Y-46704695D01*
X164499319Y-46997006D01*
X164499500Y-47002984D01*
X164499500Y-96997015D01*
X164499319Y-97002993D01*
X164481637Y-97295304D01*
X164480196Y-97307171D01*
X164438048Y-97537165D01*
X164410674Y-97589324D01*
X162589324Y-99410674D01*
X162537165Y-99438048D01*
X162307171Y-99480196D01*
X162295304Y-99481637D01*
X162023993Y-99498048D01*
X162002991Y-99499319D01*
X161997015Y-99499500D01*
X103002985Y-99499500D01*
X102997008Y-99499319D01*
X102973564Y-99497900D01*
X102704695Y-99481637D01*
X102692828Y-99480196D01*
X102462833Y-99438048D01*
X102410674Y-99410674D01*
X100589324Y-97589324D01*
X100561952Y-97537169D01*
X100519802Y-97307164D01*
X100518362Y-97295303D01*
X100509241Y-97144517D01*
X100500681Y-97002992D01*
X100500500Y-96997015D01*
X100500500Y-96500000D01*
X101894551Y-96500000D01*
X101914316Y-96751146D01*
X101973127Y-96996113D01*
X102069532Y-97228856D01*
X102069535Y-97228862D01*
X102201162Y-97443656D01*
X102201168Y-97443664D01*
X102333128Y-97598170D01*
X102364776Y-97635224D01*
X102556341Y-97798836D01*
X102556343Y-97798837D01*
X102771137Y-97930464D01*
X102771143Y-97930467D01*
X103003887Y-98026872D01*
X103003889Y-98026873D01*
X103248852Y-98085683D01*
X103437118Y-98100500D01*
X103437125Y-98100500D01*
X103562875Y-98100500D01*
X103562882Y-98100500D01*
X103751148Y-98085683D01*
X103996111Y-98026873D01*
X104228859Y-97930466D01*
X104443659Y-97798836D01*
X104635224Y-97635224D01*
X104798836Y-97443659D01*
X104930466Y-97228859D01*
X105026873Y-96996111D01*
X105085683Y-96751148D01*
X105105449Y-96500000D01*
X105085683Y-96248852D01*
X105054291Y-96118095D01*
X143499500Y-96118095D01*
X143536445Y-96351363D01*
X143609432Y-96575992D01*
X143716657Y-96786433D01*
X143855483Y-96977510D01*
X144022490Y-97144517D01*
X144213567Y-97283343D01*
X144424008Y-97390568D01*
X144648632Y-97463553D01*
X144648633Y-97463553D01*
X144648636Y-97463554D01*
X144881905Y-97500500D01*
X144881908Y-97500500D01*
X145118095Y-97500500D01*
X145351363Y-97463554D01*
X145351364Y-97463553D01*
X145351368Y-97463553D01*
X145575992Y-97390568D01*
X145786433Y-97283343D01*
X145977510Y-97144517D01*
X146144517Y-96977510D01*
X146283343Y-96786433D01*
X146390568Y-96575992D01*
X146415259Y-96500000D01*
X159894551Y-96500000D01*
X159914316Y-96751146D01*
X159973127Y-96996113D01*
X160069532Y-97228856D01*
X160069535Y-97228862D01*
X160201162Y-97443656D01*
X160201168Y-97443664D01*
X160333128Y-97598170D01*
X160364776Y-97635224D01*
X160556341Y-97798836D01*
X160556343Y-97798837D01*
X160771137Y-97930464D01*
X160771143Y-97930467D01*
X161003887Y-98026872D01*
X161003889Y-98026873D01*
X161248852Y-98085683D01*
X161437118Y-98100500D01*
X161437125Y-98100500D01*
X161562875Y-98100500D01*
X161562882Y-98100500D01*
X161751148Y-98085683D01*
X161996111Y-98026873D01*
X162228859Y-97930466D01*
X162443659Y-97798836D01*
X162635224Y-97635224D01*
X162798836Y-97443659D01*
X162930466Y-97228859D01*
X163026873Y-96996111D01*
X163085683Y-96751148D01*
X163105449Y-96500000D01*
X163085683Y-96248852D01*
X163026873Y-96003889D01*
X162930466Y-95771141D01*
X162798836Y-95556341D01*
X162635224Y-95364776D01*
X162635217Y-95364770D01*
X162635214Y-95364767D01*
X162443664Y-95201168D01*
X162443656Y-95201162D01*
X162228862Y-95069535D01*
X162228856Y-95069532D01*
X161996112Y-94973127D01*
X161996113Y-94973127D01*
X161751146Y-94914316D01*
X161637306Y-94905357D01*
X161562882Y-94899500D01*
X161437118Y-94899500D01*
X161366671Y-94905044D01*
X161248853Y-94914316D01*
X161003886Y-94973127D01*
X160771143Y-95069532D01*
X160771137Y-95069535D01*
X160556343Y-95201162D01*
X160556335Y-95201168D01*
X160364785Y-95364767D01*
X160364767Y-95364785D01*
X160201168Y-95556335D01*
X160201162Y-95556343D01*
X160069535Y-95771137D01*
X160069532Y-95771143D01*
X159973127Y-96003886D01*
X159914316Y-96248853D01*
X159894551Y-96500000D01*
X146415259Y-96500000D01*
X146463553Y-96351368D01*
X146500500Y-96118092D01*
X146500500Y-96000000D01*
X146500500Y-95934108D01*
X146500500Y-80964201D01*
X146500500Y-80881908D01*
X146500500Y-80881904D01*
X146463554Y-80648636D01*
X146463553Y-80648632D01*
X146390568Y-80424008D01*
X146283343Y-80213567D01*
X146144517Y-80022490D01*
X145977510Y-79855483D01*
X145786433Y-79716657D01*
X145786432Y-79716656D01*
X145786430Y-79716655D01*
X145575992Y-79609432D01*
X145351363Y-79536445D01*
X145118095Y-79499500D01*
X145118092Y-79499500D01*
X144881908Y-79499500D01*
X144881905Y-79499500D01*
X144648636Y-79536445D01*
X144424007Y-79609432D01*
X144213569Y-79716655D01*
X144022491Y-79855482D01*
X143855482Y-80022491D01*
X143716655Y-80213569D01*
X143609432Y-80424007D01*
X143536445Y-80648636D01*
X143499500Y-80881904D01*
X143499500Y-96118095D01*
X105054291Y-96118095D01*
X105026873Y-96003889D01*
X104930466Y-95771141D01*
X104798836Y-95556341D01*
X104635224Y-95364776D01*
X104635217Y-95364770D01*
X104635214Y-95364767D01*
X104443664Y-95201168D01*
X104443656Y-95201162D01*
X104228862Y-95069535D01*
X104228856Y-95069532D01*
X103996112Y-94973127D01*
X103996113Y-94973127D01*
X103751146Y-94914316D01*
X103637306Y-94905357D01*
X103562882Y-94899500D01*
X103437118Y-94899500D01*
X103366671Y-94905044D01*
X103248853Y-94914316D01*
X103003886Y-94973127D01*
X102771143Y-95069532D01*
X102771137Y-95069535D01*
X102556343Y-95201162D01*
X102556335Y-95201168D01*
X102364785Y-95364767D01*
X102364767Y-95364785D01*
X102201168Y-95556335D01*
X102201162Y-95556343D01*
X102069535Y-95771137D01*
X102069532Y-95771143D01*
X101973127Y-96003886D01*
X101914316Y-96248853D01*
X101894551Y-96500000D01*
X100500500Y-96500000D01*
X100500500Y-81099500D01*
X100519407Y-81041309D01*
X100568907Y-81005345D01*
X100599500Y-81000500D01*
X104587531Y-81000500D01*
X104587532Y-81000500D01*
X104759938Y-80970101D01*
X104924445Y-80910225D01*
X105076055Y-80822692D01*
X105210163Y-80710163D01*
X105322692Y-80576055D01*
X105410225Y-80424445D01*
X105470101Y-80259938D01*
X105500500Y-80087532D01*
X105500500Y-80000000D01*
X105500500Y-79934108D01*
X105500500Y-63964201D01*
X105500500Y-63912468D01*
X105470101Y-63740062D01*
X105410225Y-63575555D01*
X105322692Y-63423945D01*
X105210163Y-63289837D01*
X105076055Y-63177308D01*
X104924445Y-63089775D01*
X104924441Y-63089773D01*
X104759948Y-63029902D01*
X104759940Y-63029900D01*
X104759938Y-63029899D01*
X104725456Y-63023819D01*
X104587536Y-62999500D01*
X104587532Y-62999500D01*
X104535799Y-62999500D01*
X100599500Y-62999500D01*
X100541309Y-62980593D01*
X100505345Y-62931093D01*
X100500500Y-62900500D01*
X100500500Y-49664860D01*
X107219500Y-49664860D01*
X107219501Y-49664863D01*
X107222414Y-49689990D01*
X107223325Y-49692053D01*
X107267794Y-49792765D01*
X107347235Y-49872206D01*
X107450009Y-49917585D01*
X107475135Y-49920500D01*
X107820500Y-49920499D01*
X107878691Y-49939406D01*
X107914655Y-49988906D01*
X107919500Y-50019499D01*
X107919500Y-51708084D01*
X107917018Y-51730113D01*
X107915685Y-51735954D01*
X107915684Y-51735954D01*
X107919223Y-51783162D01*
X107919500Y-51790562D01*
X107919500Y-51803762D01*
X107919543Y-51804046D01*
X107921467Y-51816811D01*
X107922295Y-51824164D01*
X107925833Y-51871373D01*
X107925834Y-51871380D01*
X107928022Y-51876953D01*
X107933760Y-51898367D01*
X107934652Y-51904286D01*
X107934653Y-51904290D01*
X107955186Y-51946927D01*
X107958146Y-51953711D01*
X107975447Y-51997792D01*
X107975448Y-51997794D01*
X107979181Y-52002475D01*
X107990974Y-52021243D01*
X107993571Y-52026636D01*
X107993577Y-52026644D01*
X108025777Y-52061348D01*
X108030606Y-52066959D01*
X108060121Y-52103970D01*
X108065071Y-52107345D01*
X108081865Y-52121797D01*
X108085945Y-52126194D01*
X108085947Y-52126195D01*
X108126949Y-52149868D01*
X108133209Y-52153801D01*
X108172327Y-52180472D01*
X108178046Y-52182235D01*
X108198367Y-52191100D01*
X108203555Y-52194096D01*
X108249739Y-52204636D01*
X108256834Y-52206537D01*
X108302098Y-52220500D01*
X108308084Y-52220500D01*
X108330113Y-52222982D01*
X108330824Y-52223144D01*
X108335954Y-52224315D01*
X108383164Y-52220777D01*
X108390563Y-52220500D01*
X128628084Y-52220500D01*
X128650113Y-52222982D01*
X128650824Y-52223144D01*
X128655954Y-52224315D01*
X128703164Y-52220777D01*
X128710563Y-52220500D01*
X128723759Y-52220500D01*
X128723762Y-52220500D01*
X128736831Y-52218529D01*
X128744173Y-52217702D01*
X128791378Y-52214166D01*
X128796949Y-52211978D01*
X128818366Y-52206239D01*
X128824287Y-52205348D01*
X128866965Y-52184794D01*
X128873685Y-52181862D01*
X128917794Y-52164552D01*
X128922472Y-52160820D01*
X128941251Y-52149020D01*
X128946642Y-52146425D01*
X128981374Y-52114197D01*
X128986937Y-52109410D01*
X129023970Y-52079879D01*
X129027344Y-52074929D01*
X129041801Y-52058130D01*
X129046194Y-52054055D01*
X129069871Y-52013042D01*
X129073801Y-52006790D01*
X129100471Y-51967674D01*
X129100470Y-51967674D01*
X129100472Y-51967673D01*
X129102236Y-51961950D01*
X129111102Y-51941628D01*
X129114096Y-51936445D01*
X129124637Y-51890255D01*
X129126537Y-51883164D01*
X129140500Y-51837902D01*
X129140500Y-51831916D01*
X129142982Y-51809885D01*
X129144315Y-51804046D01*
X129144293Y-51803759D01*
X129140777Y-51756835D01*
X129140500Y-51749436D01*
X129140500Y-49897109D01*
X129159407Y-49838918D01*
X129201143Y-49806793D01*
X129200918Y-49806340D01*
X129203227Y-49805189D01*
X129203745Y-49804791D01*
X129205019Y-49804298D01*
X129386302Y-49692052D01*
X129543872Y-49548407D01*
X129672366Y-49378255D01*
X129767405Y-49187389D01*
X129825756Y-48982310D01*
X129845429Y-48770000D01*
X129825756Y-48557690D01*
X129767405Y-48352611D01*
X129672366Y-48161745D01*
X129543872Y-47991593D01*
X129416119Y-47875130D01*
X129386307Y-47847952D01*
X129386300Y-47847946D01*
X129205024Y-47735705D01*
X129205019Y-47735702D01*
X129112161Y-47699729D01*
X129006198Y-47658679D01*
X129006197Y-47658678D01*
X129006195Y-47658678D01*
X128796610Y-47619500D01*
X128583390Y-47619500D01*
X128373804Y-47658678D01*
X128174980Y-47735702D01*
X128174975Y-47735705D01*
X127993699Y-47847946D01*
X127993692Y-47847952D01*
X127836135Y-47991586D01*
X127836131Y-47991589D01*
X127836128Y-47991593D01*
X127836125Y-47991597D01*
X127707635Y-48161743D01*
X127707630Y-48161752D01*
X127612596Y-48352608D01*
X127554244Y-48557688D01*
X127547059Y-48635232D01*
X127534571Y-48770000D01*
X127554244Y-48982310D01*
X127612595Y-49187389D01*
X127707634Y-49378255D01*
X127836128Y-49548407D01*
X127836135Y-49548413D01*
X127993692Y-49692047D01*
X127993699Y-49692053D01*
X128174977Y-49804296D01*
X128174979Y-49804296D01*
X128174981Y-49804298D01*
X128176254Y-49804791D01*
X128176698Y-49805153D01*
X128179082Y-49806340D01*
X128178814Y-49806877D01*
X128223688Y-49843437D01*
X128239500Y-49897109D01*
X128239500Y-51220500D01*
X128220593Y-51278691D01*
X128171093Y-51314655D01*
X128140500Y-51319500D01*
X108919500Y-51319500D01*
X108861309Y-51300593D01*
X108825345Y-51251093D01*
X108820500Y-51220500D01*
X108820500Y-50019499D01*
X108839407Y-49961308D01*
X108888907Y-49925344D01*
X108919500Y-49920499D01*
X109264861Y-49920499D01*
X109264864Y-49920499D01*
X109289991Y-49917585D01*
X109392765Y-49872206D01*
X109472206Y-49792765D01*
X109517585Y-49689991D01*
X109520500Y-49664865D01*
X109520499Y-48770000D01*
X109754571Y-48770000D01*
X109774244Y-48982310D01*
X109832595Y-49187389D01*
X109927634Y-49378255D01*
X110056128Y-49548407D01*
X110056135Y-49548413D01*
X110213692Y-49692047D01*
X110213699Y-49692053D01*
X110317389Y-49756255D01*
X110394981Y-49804298D01*
X110593802Y-49881321D01*
X110803390Y-49920500D01*
X111016610Y-49920500D01*
X111226198Y-49881321D01*
X111425019Y-49804298D01*
X111606302Y-49692052D01*
X111763872Y-49548407D01*
X111892366Y-49378255D01*
X111987405Y-49187389D01*
X112045756Y-48982310D01*
X112065429Y-48770000D01*
X112045756Y-48557690D01*
X111987405Y-48352611D01*
X111892366Y-48161745D01*
X111763872Y-47991593D01*
X111636119Y-47875130D01*
X111606307Y-47847952D01*
X111606300Y-47847946D01*
X111425024Y-47735705D01*
X111425019Y-47735702D01*
X111332161Y-47699729D01*
X111226198Y-47658679D01*
X111226197Y-47658678D01*
X111226195Y-47658678D01*
X111016610Y-47619500D01*
X110803390Y-47619500D01*
X110593804Y-47658678D01*
X110394980Y-47735702D01*
X110394975Y-47735705D01*
X110213699Y-47847946D01*
X110213692Y-47847952D01*
X110056135Y-47991586D01*
X110056131Y-47991589D01*
X110056128Y-47991593D01*
X110056125Y-47991597D01*
X109927635Y-48161743D01*
X109927630Y-48161752D01*
X109832596Y-48352608D01*
X109774244Y-48557688D01*
X109767059Y-48635232D01*
X109754571Y-48770000D01*
X109520499Y-48770000D01*
X109520499Y-47875136D01*
X109517585Y-47850009D01*
X109472206Y-47747235D01*
X109392765Y-47667794D01*
X109289991Y-47622415D01*
X109289990Y-47622414D01*
X109289988Y-47622414D01*
X109264868Y-47619500D01*
X107475139Y-47619500D01*
X107475136Y-47619501D01*
X107450009Y-47622414D01*
X107347235Y-47667794D01*
X107267794Y-47747235D01*
X107222414Y-47850011D01*
X107219500Y-47875130D01*
X107219500Y-49664860D01*
X100500500Y-49664860D01*
X100500500Y-47500000D01*
X101894551Y-47500000D01*
X101914316Y-47751146D01*
X101973127Y-47996113D01*
X102069532Y-48228856D01*
X102069535Y-48228862D01*
X102201162Y-48443656D01*
X102201168Y-48443664D01*
X102300661Y-48560156D01*
X102364776Y-48635224D01*
X102556341Y-48798836D01*
X102556343Y-48798837D01*
X102771137Y-48930464D01*
X102771141Y-48930466D01*
X102987298Y-49020001D01*
X103003887Y-49026872D01*
X103003889Y-49026873D01*
X103248852Y-49085683D01*
X103437118Y-49100500D01*
X103437125Y-49100500D01*
X103562875Y-49100500D01*
X103562882Y-49100500D01*
X103751148Y-49085683D01*
X103996111Y-49026873D01*
X104228859Y-48930466D01*
X104443659Y-48798836D01*
X104635224Y-48635224D01*
X104798836Y-48443659D01*
X104930466Y-48228859D01*
X105026873Y-47996111D01*
X105085683Y-47751148D01*
X105105449Y-47500000D01*
X105085683Y-47248852D01*
X105026873Y-47003889D01*
X105024022Y-46997007D01*
X104930467Y-46771143D01*
X104930464Y-46771137D01*
X104823649Y-46596832D01*
X104798836Y-46556341D01*
X104701445Y-46442311D01*
X104635232Y-46364785D01*
X104635229Y-46364782D01*
X104635224Y-46364776D01*
X104635217Y-46364770D01*
X104635214Y-46364767D01*
X104477422Y-46230000D01*
X107214571Y-46230000D01*
X107231312Y-46410674D01*
X107234244Y-46442310D01*
X107292595Y-46647389D01*
X107387634Y-46838255D01*
X107516128Y-47008407D01*
X107516135Y-47008413D01*
X107673692Y-47152047D01*
X107673699Y-47152053D01*
X107777389Y-47216255D01*
X107854981Y-47264298D01*
X108053802Y-47341321D01*
X108263390Y-47380500D01*
X108476610Y-47380500D01*
X108686198Y-47341321D01*
X108885019Y-47264298D01*
X109066302Y-47152052D01*
X109223872Y-47008407D01*
X109352366Y-46838255D01*
X109403595Y-46735371D01*
X109446457Y-46691710D01*
X109492216Y-46680500D01*
X109787784Y-46680500D01*
X109845975Y-46699407D01*
X109876405Y-46735372D01*
X109927630Y-46838248D01*
X109927632Y-46838252D01*
X109927634Y-46838255D01*
X110056128Y-47008407D01*
X110056135Y-47008413D01*
X110213692Y-47152047D01*
X110213699Y-47152053D01*
X110317389Y-47216255D01*
X110394981Y-47264298D01*
X110593802Y-47341321D01*
X110803390Y-47380500D01*
X111016610Y-47380500D01*
X111226198Y-47341321D01*
X111425019Y-47264298D01*
X111606302Y-47152052D01*
X111763872Y-47008407D01*
X111892366Y-46838255D01*
X111985795Y-46650621D01*
X112028655Y-46606962D01*
X112088996Y-46596832D01*
X112143767Y-46624104D01*
X112170040Y-46669127D01*
X112176567Y-46693487D01*
X112276399Y-46907577D01*
X112411886Y-47101073D01*
X112578926Y-47268113D01*
X112772422Y-47403600D01*
X112986512Y-47503432D01*
X113017696Y-47511787D01*
X113069011Y-47545110D01*
X113090939Y-47602231D01*
X113075104Y-47661332D01*
X113027838Y-47699729D01*
X112934980Y-47735702D01*
X112934975Y-47735705D01*
X112753699Y-47847946D01*
X112753692Y-47847952D01*
X112596135Y-47991586D01*
X112596131Y-47991589D01*
X112596128Y-47991593D01*
X112596125Y-47991597D01*
X112467635Y-48161743D01*
X112467630Y-48161752D01*
X112372596Y-48352608D01*
X112314244Y-48557688D01*
X112307059Y-48635232D01*
X112294571Y-48770000D01*
X112314244Y-48982310D01*
X112372595Y-49187389D01*
X112467634Y-49378255D01*
X112596128Y-49548407D01*
X112596135Y-49548413D01*
X112753692Y-49692047D01*
X112753699Y-49692053D01*
X112857389Y-49756255D01*
X112934981Y-49804298D01*
X113133802Y-49881321D01*
X113343390Y-49920500D01*
X113556610Y-49920500D01*
X113766198Y-49881321D01*
X113965019Y-49804298D01*
X114146302Y-49692052D01*
X114303872Y-49548407D01*
X114432366Y-49378255D01*
X114527405Y-49187389D01*
X114585756Y-48982310D01*
X114605429Y-48770000D01*
X114834571Y-48770000D01*
X114854244Y-48982310D01*
X114912595Y-49187389D01*
X115007634Y-49378255D01*
X115136128Y-49548407D01*
X115136135Y-49548413D01*
X115293692Y-49692047D01*
X115293699Y-49692053D01*
X115397389Y-49756255D01*
X115474981Y-49804298D01*
X115673802Y-49881321D01*
X115883390Y-49920500D01*
X116096610Y-49920500D01*
X116306198Y-49881321D01*
X116505019Y-49804298D01*
X116686302Y-49692052D01*
X116843872Y-49548407D01*
X116972366Y-49378255D01*
X117065795Y-49190621D01*
X117108655Y-49146962D01*
X117168996Y-49136832D01*
X117223767Y-49164104D01*
X117250040Y-49209127D01*
X117256567Y-49233487D01*
X117356399Y-49447577D01*
X117491886Y-49641073D01*
X117658926Y-49808113D01*
X117852422Y-49943600D01*
X118066509Y-50043430D01*
X118280000Y-50100634D01*
X118280000Y-49205501D01*
X118387685Y-49254680D01*
X118494237Y-49270000D01*
X118565763Y-49270000D01*
X118672315Y-49254680D01*
X118780000Y-49205501D01*
X118780000Y-50100633D01*
X118993490Y-50043430D01*
X119207577Y-49943600D01*
X119401073Y-49808113D01*
X119568113Y-49641073D01*
X119703600Y-49447577D01*
X119803431Y-49233488D01*
X119809958Y-49209130D01*
X119843281Y-49157815D01*
X119900402Y-49135888D01*
X119959503Y-49151723D01*
X119994206Y-49190624D01*
X120087630Y-49378248D01*
X120087632Y-49378252D01*
X120087634Y-49378255D01*
X120216128Y-49548407D01*
X120216135Y-49548413D01*
X120373692Y-49692047D01*
X120373699Y-49692053D01*
X120477389Y-49756255D01*
X120554981Y-49804298D01*
X120753802Y-49881321D01*
X120963390Y-49920500D01*
X121176610Y-49920500D01*
X121386198Y-49881321D01*
X121585019Y-49804298D01*
X121766302Y-49692052D01*
X121923872Y-49548407D01*
X122052366Y-49378255D01*
X122147405Y-49187389D01*
X122205756Y-48982310D01*
X122225429Y-48770000D01*
X122205756Y-48557690D01*
X122147405Y-48352611D01*
X122052366Y-48161745D01*
X121923872Y-47991593D01*
X121796119Y-47875130D01*
X121766307Y-47847952D01*
X121766300Y-47847946D01*
X121585024Y-47735705D01*
X121585019Y-47735702D01*
X121492161Y-47699729D01*
X121386198Y-47658679D01*
X121386197Y-47658678D01*
X121386195Y-47658678D01*
X121176610Y-47619500D01*
X120963390Y-47619500D01*
X120753804Y-47658678D01*
X120554980Y-47735702D01*
X120554975Y-47735705D01*
X120373699Y-47847946D01*
X120373692Y-47847952D01*
X120216135Y-47991586D01*
X120216131Y-47991589D01*
X120216128Y-47991593D01*
X120216125Y-47991597D01*
X120087635Y-48161743D01*
X120087630Y-48161752D01*
X119994206Y-48349375D01*
X119951343Y-48393037D01*
X119891002Y-48403167D01*
X119836231Y-48375895D01*
X119809958Y-48330869D01*
X119803430Y-48306506D01*
X119803429Y-48306505D01*
X119703605Y-48092432D01*
X119703601Y-48092424D01*
X119568113Y-47898926D01*
X119401073Y-47731886D01*
X119207577Y-47596399D01*
X118993486Y-47496567D01*
X118962301Y-47488211D01*
X118910987Y-47454887D01*
X118889061Y-47397766D01*
X118904897Y-47338665D01*
X118952160Y-47300271D01*
X119045019Y-47264298D01*
X119226302Y-47152052D01*
X119383872Y-47008407D01*
X119512366Y-46838255D01*
X119607405Y-46647389D01*
X119665756Y-46442310D01*
X119685429Y-46230000D01*
X119914571Y-46230000D01*
X119931312Y-46410674D01*
X119934244Y-46442310D01*
X119992595Y-46647389D01*
X120087634Y-46838255D01*
X120216128Y-47008407D01*
X120216135Y-47008413D01*
X120373692Y-47152047D01*
X120373699Y-47152053D01*
X120477389Y-47216255D01*
X120554981Y-47264298D01*
X120753802Y-47341321D01*
X120963390Y-47380500D01*
X121176610Y-47380500D01*
X121386198Y-47341321D01*
X121585019Y-47264298D01*
X121766302Y-47152052D01*
X121923872Y-47008407D01*
X122052366Y-46838255D01*
X122145795Y-46650621D01*
X122188655Y-46606962D01*
X122248996Y-46596832D01*
X122303767Y-46624104D01*
X122330040Y-46669127D01*
X122336567Y-46693487D01*
X122436399Y-46907577D01*
X122571886Y-47101073D01*
X122738926Y-47268113D01*
X122932422Y-47403600D01*
X123146512Y-47503432D01*
X123177696Y-47511787D01*
X123229011Y-47545110D01*
X123250939Y-47602231D01*
X123235104Y-47661332D01*
X123187838Y-47699729D01*
X123094980Y-47735702D01*
X123094975Y-47735705D01*
X122913699Y-47847946D01*
X122913692Y-47847952D01*
X122756135Y-47991586D01*
X122756131Y-47991589D01*
X122756128Y-47991593D01*
X122756125Y-47991597D01*
X122627635Y-48161743D01*
X122627630Y-48161752D01*
X122532596Y-48352608D01*
X122474244Y-48557688D01*
X122467059Y-48635232D01*
X122454571Y-48770000D01*
X122474244Y-48982310D01*
X122532595Y-49187389D01*
X122627634Y-49378255D01*
X122756128Y-49548407D01*
X122756135Y-49548413D01*
X122913692Y-49692047D01*
X122913699Y-49692053D01*
X123017389Y-49756255D01*
X123094981Y-49804298D01*
X123293802Y-49881321D01*
X123503390Y-49920500D01*
X123716610Y-49920500D01*
X123926198Y-49881321D01*
X124125019Y-49804298D01*
X124306302Y-49692052D01*
X124463872Y-49548407D01*
X124592366Y-49378255D01*
X124687405Y-49187389D01*
X124745756Y-48982310D01*
X124765429Y-48770000D01*
X124994571Y-48770000D01*
X125014244Y-48982310D01*
X125072595Y-49187389D01*
X125167634Y-49378255D01*
X125296128Y-49548407D01*
X125296135Y-49548413D01*
X125453692Y-49692047D01*
X125453699Y-49692053D01*
X125557389Y-49756255D01*
X125634981Y-49804298D01*
X125833802Y-49881321D01*
X126043390Y-49920500D01*
X126256610Y-49920500D01*
X126466198Y-49881321D01*
X126665019Y-49804298D01*
X126846302Y-49692052D01*
X127003872Y-49548407D01*
X127132366Y-49378255D01*
X127227405Y-49187389D01*
X127285756Y-48982310D01*
X127305429Y-48770000D01*
X127285756Y-48557690D01*
X127227405Y-48352611D01*
X127132366Y-48161745D01*
X127003872Y-47991593D01*
X126876119Y-47875130D01*
X126846307Y-47847952D01*
X126846300Y-47847946D01*
X126665024Y-47735705D01*
X126665019Y-47735702D01*
X126572161Y-47699729D01*
X126466198Y-47658679D01*
X126466197Y-47658678D01*
X126466195Y-47658678D01*
X126256610Y-47619500D01*
X126043390Y-47619500D01*
X125833804Y-47658678D01*
X125634980Y-47735702D01*
X125634975Y-47735705D01*
X125453699Y-47847946D01*
X125453692Y-47847952D01*
X125296135Y-47991586D01*
X125296131Y-47991589D01*
X125296128Y-47991593D01*
X125296125Y-47991597D01*
X125167635Y-48161743D01*
X125167630Y-48161752D01*
X125072596Y-48352608D01*
X125014244Y-48557688D01*
X125007059Y-48635232D01*
X124994571Y-48770000D01*
X124765429Y-48770000D01*
X124745756Y-48557690D01*
X124687405Y-48352611D01*
X124592366Y-48161745D01*
X124463872Y-47991593D01*
X124336119Y-47875130D01*
X124306307Y-47847952D01*
X124306300Y-47847946D01*
X124125024Y-47735705D01*
X124125019Y-47735702D01*
X124032161Y-47699729D01*
X123984730Y-47661077D01*
X123969076Y-47601928D01*
X123991179Y-47544874D01*
X124042303Y-47511787D01*
X124073487Y-47503431D01*
X124287577Y-47403600D01*
X124481073Y-47268113D01*
X124648113Y-47101073D01*
X124783600Y-46907577D01*
X124883431Y-46693488D01*
X124889958Y-46669130D01*
X124923281Y-46617815D01*
X124980402Y-46595888D01*
X125039503Y-46611723D01*
X125074206Y-46650624D01*
X125167630Y-46838248D01*
X125167632Y-46838252D01*
X125167634Y-46838255D01*
X125296128Y-47008407D01*
X125296135Y-47008413D01*
X125453692Y-47152047D01*
X125453699Y-47152053D01*
X125557389Y-47216255D01*
X125634981Y-47264298D01*
X125833802Y-47341321D01*
X126043390Y-47380500D01*
X126256610Y-47380500D01*
X126466198Y-47341321D01*
X126665019Y-47264298D01*
X126846302Y-47152052D01*
X127003872Y-47008407D01*
X127132366Y-46838255D01*
X127227405Y-46647389D01*
X127285756Y-46442310D01*
X127305429Y-46230000D01*
X127534571Y-46230000D01*
X127551312Y-46410674D01*
X127554244Y-46442310D01*
X127612595Y-46647389D01*
X127707634Y-46838255D01*
X127836128Y-47008407D01*
X127836135Y-47008413D01*
X127993692Y-47152047D01*
X127993699Y-47152053D01*
X128097389Y-47216255D01*
X128174981Y-47264298D01*
X128373802Y-47341321D01*
X128583390Y-47380500D01*
X128796610Y-47380500D01*
X129006198Y-47341321D01*
X129205019Y-47264298D01*
X129386302Y-47152052D01*
X129543872Y-47008407D01*
X129672366Y-46838255D01*
X129765795Y-46650621D01*
X129808655Y-46606962D01*
X129868996Y-46596832D01*
X129923767Y-46624104D01*
X129950040Y-46669127D01*
X129956567Y-46693487D01*
X130056399Y-46907577D01*
X130191886Y-47101073D01*
X130358926Y-47268113D01*
X130552422Y-47403600D01*
X130766512Y-47503432D01*
X130797696Y-47511787D01*
X130849011Y-47545110D01*
X130870939Y-47602231D01*
X130855104Y-47661332D01*
X130807838Y-47699729D01*
X130714980Y-47735702D01*
X130714975Y-47735705D01*
X130533699Y-47847946D01*
X130533692Y-47847952D01*
X130376135Y-47991586D01*
X130376131Y-47991589D01*
X130376128Y-47991593D01*
X130376125Y-47991597D01*
X130247635Y-48161743D01*
X130247630Y-48161752D01*
X130152596Y-48352608D01*
X130094244Y-48557688D01*
X130087059Y-48635232D01*
X130074571Y-48770000D01*
X130094244Y-48982310D01*
X130152595Y-49187389D01*
X130247634Y-49378255D01*
X130376128Y-49548407D01*
X130376135Y-49548413D01*
X130533692Y-49692047D01*
X130533699Y-49692053D01*
X130637389Y-49756255D01*
X130714981Y-49804298D01*
X130913802Y-49881321D01*
X131123390Y-49920500D01*
X131336610Y-49920500D01*
X131546198Y-49881321D01*
X131745019Y-49804298D01*
X131926302Y-49692052D01*
X132083872Y-49548407D01*
X132212366Y-49378255D01*
X132307405Y-49187389D01*
X132365756Y-48982310D01*
X132385429Y-48770000D01*
X132614571Y-48770000D01*
X132634244Y-48982310D01*
X132692595Y-49187389D01*
X132787634Y-49378255D01*
X132916128Y-49548407D01*
X132916135Y-49548413D01*
X133073692Y-49692047D01*
X133073699Y-49692053D01*
X133177389Y-49756255D01*
X133254981Y-49804298D01*
X133453802Y-49881321D01*
X133663390Y-49920500D01*
X133876610Y-49920500D01*
X134086198Y-49881321D01*
X134285019Y-49804298D01*
X134466302Y-49692052D01*
X134623872Y-49548407D01*
X134752366Y-49378255D01*
X134847405Y-49187389D01*
X134905756Y-48982310D01*
X134925429Y-48770000D01*
X135154571Y-48770000D01*
X135174244Y-48982310D01*
X135232595Y-49187389D01*
X135327634Y-49378255D01*
X135456128Y-49548407D01*
X135456135Y-49548413D01*
X135613692Y-49692047D01*
X135613699Y-49692053D01*
X135717389Y-49756255D01*
X135794981Y-49804298D01*
X135993802Y-49881321D01*
X136203390Y-49920500D01*
X136416610Y-49920500D01*
X136626198Y-49881321D01*
X136825019Y-49804298D01*
X137006302Y-49692052D01*
X137163872Y-49548407D01*
X137292366Y-49378255D01*
X137385795Y-49190621D01*
X137428655Y-49146962D01*
X137488996Y-49136832D01*
X137543767Y-49164104D01*
X137570040Y-49209127D01*
X137576567Y-49233487D01*
X137676399Y-49447577D01*
X137811886Y-49641073D01*
X137978926Y-49808113D01*
X138172422Y-49943600D01*
X138386509Y-50043430D01*
X138600000Y-50100634D01*
X138600000Y-49205501D01*
X138707685Y-49254680D01*
X138814237Y-49270000D01*
X138885763Y-49270000D01*
X138992315Y-49254680D01*
X139100000Y-49205501D01*
X139100000Y-50100633D01*
X139313490Y-50043430D01*
X139527577Y-49943600D01*
X139721073Y-49808113D01*
X139888113Y-49641073D01*
X140023600Y-49447577D01*
X140123431Y-49233488D01*
X140129958Y-49209130D01*
X140163281Y-49157815D01*
X140220402Y-49135888D01*
X140279503Y-49151723D01*
X140314206Y-49190624D01*
X140407630Y-49378248D01*
X140407632Y-49378252D01*
X140407634Y-49378255D01*
X140536128Y-49548407D01*
X140536135Y-49548413D01*
X140693692Y-49692047D01*
X140693699Y-49692053D01*
X140797389Y-49756255D01*
X140874981Y-49804298D01*
X141073802Y-49881321D01*
X141283390Y-49920500D01*
X141496610Y-49920500D01*
X141706198Y-49881321D01*
X141905019Y-49804298D01*
X142086302Y-49692052D01*
X142243872Y-49548407D01*
X142372366Y-49378255D01*
X142467405Y-49187389D01*
X142525756Y-48982310D01*
X142545429Y-48770000D01*
X142525756Y-48557690D01*
X142467405Y-48352611D01*
X142372366Y-48161745D01*
X142243872Y-47991593D01*
X142116119Y-47875130D01*
X142086307Y-47847952D01*
X142086300Y-47847946D01*
X141905024Y-47735705D01*
X141905019Y-47735702D01*
X141812161Y-47699729D01*
X141706198Y-47658679D01*
X141706197Y-47658678D01*
X141706195Y-47658678D01*
X141496610Y-47619500D01*
X141283390Y-47619500D01*
X141073804Y-47658678D01*
X140874980Y-47735702D01*
X140874975Y-47735705D01*
X140693699Y-47847946D01*
X140693692Y-47847952D01*
X140536135Y-47991586D01*
X140536131Y-47991589D01*
X140536128Y-47991593D01*
X140536125Y-47991597D01*
X140407635Y-48161743D01*
X140407630Y-48161752D01*
X140314206Y-48349375D01*
X140271343Y-48393037D01*
X140211002Y-48403167D01*
X140156231Y-48375895D01*
X140129958Y-48330869D01*
X140123430Y-48306506D01*
X140123429Y-48306505D01*
X140023605Y-48092432D01*
X140023601Y-48092424D01*
X139888113Y-47898926D01*
X139721073Y-47731886D01*
X139527577Y-47596399D01*
X139313486Y-47496567D01*
X139282301Y-47488211D01*
X139230987Y-47454887D01*
X139209061Y-47397766D01*
X139224897Y-47338665D01*
X139272160Y-47300271D01*
X139365019Y-47264298D01*
X139546302Y-47152052D01*
X139703872Y-47008407D01*
X139832366Y-46838255D01*
X139927405Y-46647389D01*
X139985756Y-46442310D01*
X140005429Y-46230000D01*
X140234571Y-46230000D01*
X140251312Y-46410674D01*
X140254244Y-46442310D01*
X140312595Y-46647389D01*
X140407634Y-46838255D01*
X140536128Y-47008407D01*
X140536135Y-47008413D01*
X140693692Y-47152047D01*
X140693699Y-47152053D01*
X140797389Y-47216255D01*
X140874981Y-47264298D01*
X141073802Y-47341321D01*
X141283390Y-47380500D01*
X141496610Y-47380500D01*
X141706198Y-47341321D01*
X141905019Y-47264298D01*
X142086302Y-47152052D01*
X142243872Y-47008407D01*
X142372366Y-46838255D01*
X142465795Y-46650621D01*
X142508655Y-46606962D01*
X142568996Y-46596832D01*
X142623767Y-46624104D01*
X142650040Y-46669127D01*
X142656567Y-46693487D01*
X142756399Y-46907577D01*
X142891886Y-47101073D01*
X143058926Y-47268113D01*
X143252422Y-47403600D01*
X143466512Y-47503432D01*
X143497696Y-47511787D01*
X143549011Y-47545110D01*
X143570939Y-47602231D01*
X143555104Y-47661332D01*
X143507838Y-47699729D01*
X143414980Y-47735702D01*
X143414975Y-47735705D01*
X143233699Y-47847946D01*
X143233692Y-47847952D01*
X143076135Y-47991586D01*
X143076131Y-47991589D01*
X143076128Y-47991593D01*
X143076125Y-47991597D01*
X142947635Y-48161743D01*
X142947630Y-48161752D01*
X142852596Y-48352608D01*
X142794244Y-48557688D01*
X142787059Y-48635232D01*
X142774571Y-48770000D01*
X142794244Y-48982310D01*
X142852595Y-49187389D01*
X142947634Y-49378255D01*
X143076128Y-49548407D01*
X143076135Y-49548413D01*
X143233692Y-49692047D01*
X143233699Y-49692053D01*
X143337389Y-49756255D01*
X143414981Y-49804298D01*
X143613802Y-49881321D01*
X143823390Y-49920500D01*
X144036610Y-49920500D01*
X144246198Y-49881321D01*
X144445019Y-49804298D01*
X144626302Y-49692052D01*
X144783872Y-49548407D01*
X144912366Y-49378255D01*
X145007405Y-49187389D01*
X145065756Y-48982310D01*
X145085429Y-48770000D01*
X145314571Y-48770000D01*
X145334244Y-48982310D01*
X145392595Y-49187389D01*
X145487634Y-49378255D01*
X145616128Y-49548407D01*
X145616135Y-49548413D01*
X145773692Y-49692047D01*
X145773699Y-49692053D01*
X145877389Y-49756255D01*
X145954981Y-49804298D01*
X146153802Y-49881321D01*
X146363390Y-49920500D01*
X146576610Y-49920500D01*
X146786198Y-49881321D01*
X146985019Y-49804298D01*
X147166302Y-49692052D01*
X147323872Y-49548407D01*
X147452366Y-49378255D01*
X147547405Y-49187389D01*
X147605756Y-48982310D01*
X147625429Y-48770000D01*
X147605756Y-48557690D01*
X147547405Y-48352611D01*
X147452366Y-48161745D01*
X147323872Y-47991593D01*
X147196119Y-47875130D01*
X147166307Y-47847952D01*
X147166300Y-47847946D01*
X146985024Y-47735705D01*
X146985019Y-47735702D01*
X146892161Y-47699729D01*
X146786198Y-47658679D01*
X146786197Y-47658678D01*
X146786195Y-47658678D01*
X146576610Y-47619500D01*
X146363390Y-47619500D01*
X146153804Y-47658678D01*
X145954980Y-47735702D01*
X145954975Y-47735705D01*
X145773699Y-47847946D01*
X145773692Y-47847952D01*
X145616135Y-47991586D01*
X145616131Y-47991589D01*
X145616128Y-47991593D01*
X145616125Y-47991597D01*
X145487635Y-48161743D01*
X145487630Y-48161752D01*
X145392596Y-48352608D01*
X145334244Y-48557688D01*
X145327059Y-48635232D01*
X145314571Y-48770000D01*
X145085429Y-48770000D01*
X145065756Y-48557690D01*
X145007405Y-48352611D01*
X144912366Y-48161745D01*
X144783872Y-47991593D01*
X144656119Y-47875130D01*
X144626307Y-47847952D01*
X144626300Y-47847946D01*
X144445024Y-47735705D01*
X144445019Y-47735702D01*
X144352161Y-47699729D01*
X144304730Y-47661077D01*
X144289076Y-47601928D01*
X144311179Y-47544874D01*
X144362303Y-47511787D01*
X144393487Y-47503431D01*
X144607577Y-47403600D01*
X144801073Y-47268113D01*
X144968113Y-47101073D01*
X145103600Y-46907577D01*
X145203431Y-46693488D01*
X145209958Y-46669130D01*
X145243281Y-46617815D01*
X145300402Y-46595888D01*
X145359503Y-46611723D01*
X145394206Y-46650624D01*
X145487630Y-46838248D01*
X145487632Y-46838252D01*
X145487634Y-46838255D01*
X145616128Y-47008407D01*
X145616135Y-47008413D01*
X145773692Y-47152047D01*
X145773699Y-47152053D01*
X145877389Y-47216255D01*
X145954981Y-47264298D01*
X146153802Y-47341321D01*
X146363390Y-47380500D01*
X146576610Y-47380500D01*
X146786198Y-47341321D01*
X146985019Y-47264298D01*
X147166302Y-47152052D01*
X147323872Y-47008407D01*
X147452366Y-46838255D01*
X147545795Y-46650621D01*
X147588655Y-46606962D01*
X147648996Y-46596832D01*
X147703767Y-46624104D01*
X147730040Y-46669127D01*
X147736567Y-46693487D01*
X147836399Y-46907577D01*
X147971886Y-47101073D01*
X148138926Y-47268113D01*
X148332422Y-47403600D01*
X148546512Y-47503432D01*
X148577696Y-47511787D01*
X148629011Y-47545110D01*
X148650939Y-47602231D01*
X148635104Y-47661332D01*
X148587838Y-47699729D01*
X148494980Y-47735702D01*
X148494975Y-47735705D01*
X148313699Y-47847946D01*
X148313692Y-47847952D01*
X148156135Y-47991586D01*
X148156131Y-47991589D01*
X148156128Y-47991593D01*
X148156125Y-47991597D01*
X148027635Y-48161743D01*
X148027630Y-48161752D01*
X147932596Y-48352608D01*
X147874244Y-48557688D01*
X147867059Y-48635232D01*
X147854571Y-48770000D01*
X147874244Y-48982310D01*
X147932595Y-49187389D01*
X148027634Y-49378255D01*
X148156128Y-49548407D01*
X148156135Y-49548413D01*
X148313692Y-49692047D01*
X148313699Y-49692053D01*
X148417389Y-49756255D01*
X148494981Y-49804298D01*
X148693802Y-49881321D01*
X148903390Y-49920500D01*
X149116610Y-49920500D01*
X149326198Y-49881321D01*
X149525019Y-49804298D01*
X149706302Y-49692052D01*
X149863872Y-49548407D01*
X149992366Y-49378255D01*
X150087405Y-49187389D01*
X150145756Y-48982310D01*
X150165429Y-48770000D01*
X150394571Y-48770000D01*
X150414244Y-48982310D01*
X150472595Y-49187389D01*
X150567634Y-49378255D01*
X150696128Y-49548407D01*
X150696135Y-49548413D01*
X150853692Y-49692047D01*
X150853699Y-49692053D01*
X150957389Y-49756255D01*
X151034981Y-49804298D01*
X151233802Y-49881321D01*
X151443390Y-49920500D01*
X151656610Y-49920500D01*
X151866198Y-49881321D01*
X152065019Y-49804298D01*
X152246302Y-49692052D01*
X152403872Y-49548407D01*
X152532366Y-49378255D01*
X152627405Y-49187389D01*
X152685756Y-48982310D01*
X152705429Y-48770000D01*
X152934571Y-48770000D01*
X152954244Y-48982310D01*
X153012595Y-49187389D01*
X153107634Y-49378255D01*
X153236128Y-49548407D01*
X153236135Y-49548413D01*
X153393692Y-49692047D01*
X153393699Y-49692053D01*
X153497389Y-49756255D01*
X153574981Y-49804298D01*
X153773802Y-49881321D01*
X153983390Y-49920500D01*
X154196610Y-49920500D01*
X154406198Y-49881321D01*
X154605019Y-49804298D01*
X154786302Y-49692052D01*
X154943872Y-49548407D01*
X155072366Y-49378255D01*
X155165795Y-49190621D01*
X155208655Y-49146962D01*
X155268996Y-49136832D01*
X155323767Y-49164104D01*
X155350040Y-49209127D01*
X155356567Y-49233487D01*
X155456399Y-49447577D01*
X155591886Y-49641073D01*
X155758926Y-49808113D01*
X155952422Y-49943600D01*
X156166509Y-50043430D01*
X156380000Y-50100634D01*
X156380000Y-49205501D01*
X156487685Y-49254680D01*
X156594237Y-49270000D01*
X156665763Y-49270000D01*
X156772315Y-49254680D01*
X156880000Y-49205501D01*
X156880000Y-50100633D01*
X157093490Y-50043430D01*
X157307577Y-49943600D01*
X157501073Y-49808113D01*
X157668113Y-49641073D01*
X157803600Y-49447577D01*
X157903430Y-49233489D01*
X157960636Y-49020000D01*
X157063686Y-49020000D01*
X157089493Y-48979844D01*
X157130000Y-48841889D01*
X157130000Y-48698111D01*
X157089493Y-48560156D01*
X157063686Y-48520000D01*
X157960636Y-48520000D01*
X157903429Y-48306505D01*
X157803605Y-48092432D01*
X157803601Y-48092424D01*
X157668113Y-47898926D01*
X157501073Y-47731886D01*
X157307577Y-47596399D01*
X157100848Y-47500000D01*
X159894551Y-47500000D01*
X159914316Y-47751146D01*
X159973127Y-47996113D01*
X160069532Y-48228856D01*
X160069535Y-48228862D01*
X160201162Y-48443656D01*
X160201168Y-48443664D01*
X160300661Y-48560156D01*
X160364776Y-48635224D01*
X160556341Y-48798836D01*
X160556343Y-48798837D01*
X160771137Y-48930464D01*
X160771141Y-48930466D01*
X160987298Y-49020001D01*
X161003887Y-49026872D01*
X161003889Y-49026873D01*
X161248852Y-49085683D01*
X161437118Y-49100500D01*
X161437125Y-49100500D01*
X161562875Y-49100500D01*
X161562882Y-49100500D01*
X161751148Y-49085683D01*
X161996111Y-49026873D01*
X162228859Y-48930466D01*
X162443659Y-48798836D01*
X162635224Y-48635224D01*
X162798836Y-48443659D01*
X162930466Y-48228859D01*
X163026873Y-47996111D01*
X163085683Y-47751148D01*
X163105449Y-47500000D01*
X163085683Y-47248852D01*
X163026873Y-47003889D01*
X163024022Y-46997007D01*
X162930467Y-46771143D01*
X162930464Y-46771137D01*
X162823649Y-46596832D01*
X162798836Y-46556341D01*
X162701445Y-46442311D01*
X162635232Y-46364785D01*
X162635229Y-46364782D01*
X162635224Y-46364776D01*
X162635217Y-46364770D01*
X162635214Y-46364767D01*
X162443664Y-46201168D01*
X162443656Y-46201162D01*
X162228862Y-46069535D01*
X162228856Y-46069532D01*
X161996112Y-45973127D01*
X161996113Y-45973127D01*
X161751146Y-45914316D01*
X161637306Y-45905357D01*
X161562882Y-45899500D01*
X161437118Y-45899500D01*
X161366671Y-45905044D01*
X161248853Y-45914316D01*
X161003886Y-45973127D01*
X160771143Y-46069532D01*
X160771137Y-46069535D01*
X160556343Y-46201162D01*
X160556335Y-46201168D01*
X160364785Y-46364767D01*
X160364767Y-46364785D01*
X160201168Y-46556335D01*
X160201162Y-46556343D01*
X160069535Y-46771137D01*
X160069532Y-46771143D01*
X159973127Y-47003886D01*
X159914316Y-47248853D01*
X159894551Y-47500000D01*
X157100848Y-47500000D01*
X157093486Y-47496567D01*
X157062301Y-47488211D01*
X157010987Y-47454887D01*
X156989061Y-47397766D01*
X157004897Y-47338665D01*
X157052160Y-47300271D01*
X157145019Y-47264298D01*
X157326302Y-47152052D01*
X157483872Y-47008407D01*
X157612366Y-46838255D01*
X157707405Y-46647389D01*
X157765756Y-46442310D01*
X157785429Y-46230000D01*
X157765756Y-46017690D01*
X157707405Y-45812611D01*
X157612366Y-45621745D01*
X157483872Y-45451593D01*
X157364231Y-45342525D01*
X157326307Y-45307952D01*
X157326300Y-45307946D01*
X157145024Y-45195705D01*
X157145019Y-45195702D01*
X156946195Y-45118678D01*
X156736610Y-45079500D01*
X156523390Y-45079500D01*
X156313804Y-45118678D01*
X156114980Y-45195702D01*
X156114975Y-45195705D01*
X155933699Y-45307946D01*
X155933692Y-45307952D01*
X155776135Y-45451586D01*
X155776131Y-45451589D01*
X155776128Y-45451593D01*
X155776125Y-45451597D01*
X155647635Y-45621743D01*
X155647630Y-45621752D01*
X155552596Y-45812608D01*
X155494244Y-46017688D01*
X155474571Y-46230000D01*
X155491312Y-46410674D01*
X155494244Y-46442310D01*
X155552595Y-46647389D01*
X155647634Y-46838255D01*
X155776128Y-47008407D01*
X155776135Y-47008413D01*
X155933692Y-47152047D01*
X155933699Y-47152053D01*
X156037389Y-47216255D01*
X156114981Y-47264298D01*
X156207837Y-47300270D01*
X156255268Y-47338922D01*
X156270922Y-47398071D01*
X156248819Y-47455124D01*
X156197698Y-47488211D01*
X156166512Y-47496567D01*
X156166505Y-47496570D01*
X155952432Y-47596394D01*
X155952424Y-47596398D01*
X155758926Y-47731886D01*
X155591886Y-47898926D01*
X155456398Y-48092424D01*
X155456394Y-48092432D01*
X155356570Y-48306505D01*
X155356569Y-48306507D01*
X155350040Y-48330873D01*
X155316715Y-48382186D01*
X155259593Y-48404111D01*
X155200493Y-48388274D01*
X155165793Y-48349374D01*
X155072372Y-48161756D01*
X155072369Y-48161751D01*
X155072366Y-48161745D01*
X154943872Y-47991593D01*
X154816119Y-47875130D01*
X154786307Y-47847952D01*
X154786300Y-47847946D01*
X154605024Y-47735705D01*
X154605019Y-47735702D01*
X154512161Y-47699729D01*
X154406198Y-47658679D01*
X154406197Y-47658678D01*
X154406195Y-47658678D01*
X154196610Y-47619500D01*
X153983390Y-47619500D01*
X153773804Y-47658678D01*
X153574980Y-47735702D01*
X153574975Y-47735705D01*
X153393699Y-47847946D01*
X153393692Y-47847952D01*
X153236135Y-47991586D01*
X153236131Y-47991589D01*
X153236128Y-47991593D01*
X153236125Y-47991597D01*
X153107635Y-48161743D01*
X153107630Y-48161752D01*
X153012596Y-48352608D01*
X152954244Y-48557688D01*
X152947059Y-48635232D01*
X152934571Y-48770000D01*
X152705429Y-48770000D01*
X152685756Y-48557690D01*
X152627405Y-48352611D01*
X152532366Y-48161745D01*
X152403872Y-47991593D01*
X152276119Y-47875130D01*
X152246307Y-47847952D01*
X152246300Y-47847946D01*
X152065024Y-47735705D01*
X152065019Y-47735702D01*
X151972161Y-47699729D01*
X151866198Y-47658679D01*
X151866197Y-47658678D01*
X151866195Y-47658678D01*
X151656610Y-47619500D01*
X151443390Y-47619500D01*
X151233804Y-47658678D01*
X151034980Y-47735702D01*
X151034975Y-47735705D01*
X150853699Y-47847946D01*
X150853692Y-47847952D01*
X150696135Y-47991586D01*
X150696131Y-47991589D01*
X150696128Y-47991593D01*
X150696125Y-47991597D01*
X150567635Y-48161743D01*
X150567630Y-48161752D01*
X150472596Y-48352608D01*
X150414244Y-48557688D01*
X150407059Y-48635232D01*
X150394571Y-48770000D01*
X150165429Y-48770000D01*
X150145756Y-48557690D01*
X150087405Y-48352611D01*
X149992366Y-48161745D01*
X149863872Y-47991593D01*
X149736119Y-47875130D01*
X149706307Y-47847952D01*
X149706300Y-47847946D01*
X149525024Y-47735705D01*
X149525019Y-47735702D01*
X149432161Y-47699729D01*
X149384730Y-47661077D01*
X149369076Y-47601928D01*
X149391179Y-47544874D01*
X149442303Y-47511787D01*
X149473487Y-47503431D01*
X149687577Y-47403600D01*
X149881073Y-47268113D01*
X150048113Y-47101073D01*
X150183600Y-46907577D01*
X150283431Y-46693488D01*
X150289958Y-46669130D01*
X150323281Y-46617815D01*
X150380402Y-46595888D01*
X150439503Y-46611723D01*
X150474206Y-46650624D01*
X150567630Y-46838248D01*
X150567632Y-46838252D01*
X150567634Y-46838255D01*
X150696128Y-47008407D01*
X150696135Y-47008413D01*
X150853692Y-47152047D01*
X150853699Y-47152053D01*
X150957389Y-47216255D01*
X151034981Y-47264298D01*
X151233802Y-47341321D01*
X151443390Y-47380500D01*
X151656610Y-47380500D01*
X151866198Y-47341321D01*
X152065019Y-47264298D01*
X152246302Y-47152052D01*
X152403872Y-47008407D01*
X152532366Y-46838255D01*
X152627405Y-46647389D01*
X152685756Y-46442310D01*
X152705429Y-46230000D01*
X152934571Y-46230000D01*
X152951312Y-46410674D01*
X152954244Y-46442310D01*
X153012595Y-46647389D01*
X153107634Y-46838255D01*
X153236128Y-47008407D01*
X153236135Y-47008413D01*
X153393692Y-47152047D01*
X153393699Y-47152053D01*
X153497389Y-47216255D01*
X153574981Y-47264298D01*
X153773802Y-47341321D01*
X153983390Y-47380500D01*
X154196610Y-47380500D01*
X154406198Y-47341321D01*
X154605019Y-47264298D01*
X154786302Y-47152052D01*
X154943872Y-47008407D01*
X155072366Y-46838255D01*
X155167405Y-46647389D01*
X155225756Y-46442310D01*
X155245429Y-46230000D01*
X155225756Y-46017690D01*
X155167405Y-45812611D01*
X155072366Y-45621745D01*
X154943872Y-45451593D01*
X154824231Y-45342525D01*
X154786307Y-45307952D01*
X154786300Y-45307946D01*
X154605024Y-45195705D01*
X154605019Y-45195702D01*
X154406195Y-45118678D01*
X154196610Y-45079500D01*
X153983390Y-45079500D01*
X153773804Y-45118678D01*
X153574980Y-45195702D01*
X153574975Y-45195705D01*
X153393699Y-45307946D01*
X153393692Y-45307952D01*
X153236135Y-45451586D01*
X153236131Y-45451589D01*
X153236128Y-45451593D01*
X153236125Y-45451597D01*
X153107635Y-45621743D01*
X153107630Y-45621752D01*
X153012596Y-45812608D01*
X152954244Y-46017688D01*
X152934571Y-46230000D01*
X152705429Y-46230000D01*
X152685756Y-46017690D01*
X152627405Y-45812611D01*
X152532366Y-45621745D01*
X152403872Y-45451593D01*
X152284231Y-45342525D01*
X152246307Y-45307952D01*
X152246300Y-45307946D01*
X152065024Y-45195705D01*
X152065019Y-45195702D01*
X151866195Y-45118678D01*
X151656610Y-45079500D01*
X151443390Y-45079500D01*
X151233804Y-45118678D01*
X151034980Y-45195702D01*
X151034975Y-45195705D01*
X150853699Y-45307946D01*
X150853692Y-45307952D01*
X150696135Y-45451586D01*
X150696131Y-45451589D01*
X150696128Y-45451593D01*
X150696125Y-45451597D01*
X150567635Y-45621743D01*
X150567630Y-45621752D01*
X150474206Y-45809375D01*
X150431343Y-45853037D01*
X150371002Y-45863167D01*
X150316231Y-45835895D01*
X150289958Y-45790869D01*
X150283430Y-45766506D01*
X150283429Y-45766505D01*
X150183605Y-45552432D01*
X150183601Y-45552424D01*
X150048113Y-45358926D01*
X149881073Y-45191886D01*
X149687577Y-45056399D01*
X149473489Y-44956569D01*
X149260000Y-44899364D01*
X149260000Y-45794498D01*
X149152315Y-45745320D01*
X149045763Y-45730000D01*
X148974237Y-45730000D01*
X148867685Y-45745320D01*
X148760000Y-45794498D01*
X148760000Y-44899364D01*
X148546505Y-44956570D01*
X148332432Y-45056394D01*
X148332424Y-45056398D01*
X148138926Y-45191886D01*
X147971886Y-45358926D01*
X147836398Y-45552424D01*
X147836394Y-45552432D01*
X147736570Y-45766505D01*
X147736569Y-45766507D01*
X147730040Y-45790873D01*
X147696715Y-45842186D01*
X147639593Y-45864111D01*
X147580493Y-45848274D01*
X147545793Y-45809374D01*
X147452372Y-45621756D01*
X147452369Y-45621751D01*
X147452366Y-45621745D01*
X147323872Y-45451593D01*
X147204231Y-45342525D01*
X147166307Y-45307952D01*
X147166300Y-45307946D01*
X146985024Y-45195705D01*
X146985019Y-45195702D01*
X146786195Y-45118678D01*
X146576610Y-45079500D01*
X146363390Y-45079500D01*
X146153804Y-45118678D01*
X145954980Y-45195702D01*
X145954975Y-45195705D01*
X145773699Y-45307946D01*
X145773692Y-45307952D01*
X145616135Y-45451586D01*
X145616131Y-45451589D01*
X145616128Y-45451593D01*
X145616125Y-45451597D01*
X145487635Y-45621743D01*
X145487630Y-45621752D01*
X145394206Y-45809375D01*
X145351343Y-45853037D01*
X145291002Y-45863167D01*
X145236231Y-45835895D01*
X145209958Y-45790869D01*
X145203430Y-45766506D01*
X145203429Y-45766505D01*
X145103605Y-45552432D01*
X145103601Y-45552424D01*
X144968113Y-45358926D01*
X144801073Y-45191886D01*
X144607577Y-45056399D01*
X144393489Y-44956569D01*
X144180000Y-44899364D01*
X144180000Y-45794498D01*
X144072315Y-45745320D01*
X143965763Y-45730000D01*
X143894237Y-45730000D01*
X143787685Y-45745320D01*
X143680000Y-45794498D01*
X143680000Y-44899364D01*
X143466505Y-44956570D01*
X143252432Y-45056394D01*
X143252424Y-45056398D01*
X143058926Y-45191886D01*
X142891886Y-45358926D01*
X142756398Y-45552424D01*
X142756394Y-45552432D01*
X142656570Y-45766505D01*
X142656569Y-45766507D01*
X142650040Y-45790873D01*
X142616715Y-45842186D01*
X142559593Y-45864111D01*
X142500493Y-45848274D01*
X142465793Y-45809374D01*
X142372372Y-45621756D01*
X142372369Y-45621751D01*
X142372366Y-45621745D01*
X142243872Y-45451593D01*
X142124231Y-45342525D01*
X142086307Y-45307952D01*
X142086300Y-45307946D01*
X141905024Y-45195705D01*
X141905019Y-45195702D01*
X141706195Y-45118678D01*
X141496610Y-45079500D01*
X141283390Y-45079500D01*
X141073804Y-45118678D01*
X140874980Y-45195702D01*
X140874975Y-45195705D01*
X140693699Y-45307946D01*
X140693692Y-45307952D01*
X140536135Y-45451586D01*
X140536131Y-45451589D01*
X140536128Y-45451593D01*
X140536125Y-45451597D01*
X140407635Y-45621743D01*
X140407630Y-45621752D01*
X140312596Y-45812608D01*
X140254244Y-46017688D01*
X140234571Y-46230000D01*
X140005429Y-46230000D01*
X139985756Y-46017690D01*
X139927405Y-45812611D01*
X139832366Y-45621745D01*
X139703872Y-45451593D01*
X139584231Y-45342525D01*
X139546307Y-45307952D01*
X139546300Y-45307946D01*
X139365024Y-45195705D01*
X139365019Y-45195702D01*
X139166195Y-45118678D01*
X138956610Y-45079500D01*
X138743390Y-45079500D01*
X138533804Y-45118678D01*
X138334980Y-45195702D01*
X138334975Y-45195705D01*
X138153699Y-45307946D01*
X138153692Y-45307952D01*
X137996135Y-45451586D01*
X137996131Y-45451589D01*
X137996128Y-45451593D01*
X137996125Y-45451597D01*
X137867635Y-45621743D01*
X137867630Y-45621752D01*
X137772596Y-45812608D01*
X137714244Y-46017688D01*
X137694571Y-46230000D01*
X137711312Y-46410674D01*
X137714244Y-46442310D01*
X137772595Y-46647389D01*
X137867634Y-46838255D01*
X137996128Y-47008407D01*
X137996135Y-47008413D01*
X138153692Y-47152047D01*
X138153699Y-47152053D01*
X138257389Y-47216255D01*
X138334981Y-47264298D01*
X138427837Y-47300270D01*
X138475268Y-47338922D01*
X138490922Y-47398071D01*
X138468819Y-47455124D01*
X138417698Y-47488211D01*
X138386512Y-47496567D01*
X138386505Y-47496570D01*
X138172432Y-47596394D01*
X138172424Y-47596398D01*
X137978926Y-47731886D01*
X137811886Y-47898926D01*
X137676398Y-48092424D01*
X137676394Y-48092432D01*
X137576570Y-48306505D01*
X137576569Y-48306507D01*
X137570040Y-48330873D01*
X137536715Y-48382186D01*
X137479593Y-48404111D01*
X137420493Y-48388274D01*
X137385793Y-48349374D01*
X137292372Y-48161756D01*
X137292369Y-48161751D01*
X137292366Y-48161745D01*
X137163872Y-47991593D01*
X137036119Y-47875130D01*
X137006307Y-47847952D01*
X137006300Y-47847946D01*
X136825024Y-47735705D01*
X136825019Y-47735702D01*
X136732161Y-47699729D01*
X136626198Y-47658679D01*
X136626197Y-47658678D01*
X136626195Y-47658678D01*
X136416610Y-47619500D01*
X136203390Y-47619500D01*
X135993804Y-47658678D01*
X135794980Y-47735702D01*
X135794975Y-47735705D01*
X135613699Y-47847946D01*
X135613692Y-47847952D01*
X135456135Y-47991586D01*
X135456131Y-47991589D01*
X135456128Y-47991593D01*
X135456125Y-47991597D01*
X135327635Y-48161743D01*
X135327630Y-48161752D01*
X135232596Y-48352608D01*
X135174244Y-48557688D01*
X135167059Y-48635232D01*
X135154571Y-48770000D01*
X134925429Y-48770000D01*
X134905756Y-48557690D01*
X134847405Y-48352611D01*
X134752366Y-48161745D01*
X134623872Y-47991593D01*
X134496119Y-47875130D01*
X134466307Y-47847952D01*
X134466300Y-47847946D01*
X134285024Y-47735705D01*
X134285019Y-47735702D01*
X134192161Y-47699729D01*
X134086198Y-47658679D01*
X134086197Y-47658678D01*
X134086195Y-47658678D01*
X133876610Y-47619500D01*
X133663390Y-47619500D01*
X133453804Y-47658678D01*
X133254980Y-47735702D01*
X133254975Y-47735705D01*
X133073699Y-47847946D01*
X133073692Y-47847952D01*
X132916135Y-47991586D01*
X132916131Y-47991589D01*
X132916128Y-47991593D01*
X132916125Y-47991597D01*
X132787635Y-48161743D01*
X132787630Y-48161752D01*
X132692596Y-48352608D01*
X132634244Y-48557688D01*
X132627059Y-48635232D01*
X132614571Y-48770000D01*
X132385429Y-48770000D01*
X132365756Y-48557690D01*
X132307405Y-48352611D01*
X132212366Y-48161745D01*
X132083872Y-47991593D01*
X131956119Y-47875130D01*
X131926307Y-47847952D01*
X131926300Y-47847946D01*
X131745024Y-47735705D01*
X131745019Y-47735702D01*
X131652161Y-47699729D01*
X131604730Y-47661077D01*
X131589076Y-47601928D01*
X131611179Y-47544874D01*
X131662303Y-47511787D01*
X131693487Y-47503431D01*
X131907577Y-47403600D01*
X132101073Y-47268113D01*
X132268113Y-47101073D01*
X132403600Y-46907577D01*
X132503431Y-46693488D01*
X132509958Y-46669130D01*
X132543281Y-46617815D01*
X132600402Y-46595888D01*
X132659503Y-46611723D01*
X132694206Y-46650624D01*
X132787630Y-46838248D01*
X132787632Y-46838252D01*
X132787634Y-46838255D01*
X132916128Y-47008407D01*
X132916135Y-47008413D01*
X133073692Y-47152047D01*
X133073699Y-47152053D01*
X133177389Y-47216255D01*
X133254981Y-47264298D01*
X133453802Y-47341321D01*
X133663390Y-47380500D01*
X133876610Y-47380500D01*
X134086198Y-47341321D01*
X134285019Y-47264298D01*
X134466302Y-47152052D01*
X134623872Y-47008407D01*
X134752366Y-46838255D01*
X134847405Y-46647389D01*
X134905756Y-46442310D01*
X134925429Y-46230000D01*
X135154571Y-46230000D01*
X135171312Y-46410674D01*
X135174244Y-46442310D01*
X135232595Y-46647389D01*
X135327634Y-46838255D01*
X135456128Y-47008407D01*
X135456135Y-47008413D01*
X135613692Y-47152047D01*
X135613699Y-47152053D01*
X135717389Y-47216255D01*
X135794981Y-47264298D01*
X135993802Y-47341321D01*
X136203390Y-47380500D01*
X136416610Y-47380500D01*
X136626198Y-47341321D01*
X136825019Y-47264298D01*
X137006302Y-47152052D01*
X137163872Y-47008407D01*
X137292366Y-46838255D01*
X137387405Y-46647389D01*
X137445756Y-46442310D01*
X137465429Y-46230000D01*
X137445756Y-46017690D01*
X137387405Y-45812611D01*
X137292366Y-45621745D01*
X137163872Y-45451593D01*
X137044231Y-45342525D01*
X137006307Y-45307952D01*
X137006300Y-45307946D01*
X136825024Y-45195705D01*
X136825019Y-45195702D01*
X136626195Y-45118678D01*
X136416610Y-45079500D01*
X136203390Y-45079500D01*
X135993804Y-45118678D01*
X135794980Y-45195702D01*
X135794975Y-45195705D01*
X135613699Y-45307946D01*
X135613692Y-45307952D01*
X135456135Y-45451586D01*
X135456131Y-45451589D01*
X135456128Y-45451593D01*
X135456125Y-45451597D01*
X135327635Y-45621743D01*
X135327630Y-45621752D01*
X135232596Y-45812608D01*
X135174244Y-46017688D01*
X135154571Y-46230000D01*
X134925429Y-46230000D01*
X134905756Y-46017690D01*
X134847405Y-45812611D01*
X134752366Y-45621745D01*
X134623872Y-45451593D01*
X134504231Y-45342525D01*
X134466307Y-45307952D01*
X134466300Y-45307946D01*
X134285024Y-45195705D01*
X134285019Y-45195702D01*
X134086195Y-45118678D01*
X133876610Y-45079500D01*
X133663390Y-45079500D01*
X133453804Y-45118678D01*
X133254980Y-45195702D01*
X133254975Y-45195705D01*
X133073699Y-45307946D01*
X133073692Y-45307952D01*
X132916135Y-45451586D01*
X132916131Y-45451589D01*
X132916128Y-45451593D01*
X132916125Y-45451597D01*
X132787635Y-45621743D01*
X132787630Y-45621752D01*
X132694206Y-45809375D01*
X132651343Y-45853037D01*
X132591002Y-45863167D01*
X132536231Y-45835895D01*
X132509958Y-45790869D01*
X132503430Y-45766506D01*
X132503429Y-45766505D01*
X132403605Y-45552432D01*
X132403601Y-45552424D01*
X132268113Y-45358926D01*
X132101073Y-45191886D01*
X131907577Y-45056399D01*
X131693489Y-44956569D01*
X131480000Y-44899364D01*
X131480000Y-45794498D01*
X131372315Y-45745320D01*
X131265763Y-45730000D01*
X131194237Y-45730000D01*
X131087685Y-45745320D01*
X130980000Y-45794498D01*
X130980000Y-44899364D01*
X130766505Y-44956570D01*
X130552432Y-45056394D01*
X130552424Y-45056398D01*
X130358926Y-45191886D01*
X130191886Y-45358926D01*
X130056398Y-45552424D01*
X130056394Y-45552432D01*
X129956570Y-45766505D01*
X129956569Y-45766507D01*
X129950040Y-45790873D01*
X129916715Y-45842186D01*
X129859593Y-45864111D01*
X129800493Y-45848274D01*
X129765793Y-45809374D01*
X129672372Y-45621756D01*
X129672369Y-45621751D01*
X129672366Y-45621745D01*
X129543872Y-45451593D01*
X129424231Y-45342525D01*
X129386307Y-45307952D01*
X129386300Y-45307946D01*
X129205024Y-45195705D01*
X129205019Y-45195702D01*
X129006195Y-45118678D01*
X128796610Y-45079500D01*
X128583390Y-45079500D01*
X128373804Y-45118678D01*
X128174980Y-45195702D01*
X128174975Y-45195705D01*
X127993699Y-45307946D01*
X127993692Y-45307952D01*
X127836135Y-45451586D01*
X127836131Y-45451589D01*
X127836128Y-45451593D01*
X127836125Y-45451597D01*
X127707635Y-45621743D01*
X127707630Y-45621752D01*
X127612596Y-45812608D01*
X127554244Y-46017688D01*
X127534571Y-46230000D01*
X127305429Y-46230000D01*
X127285756Y-46017690D01*
X127227405Y-45812611D01*
X127132366Y-45621745D01*
X127003872Y-45451593D01*
X126884231Y-45342525D01*
X126846307Y-45307952D01*
X126846300Y-45307946D01*
X126665024Y-45195705D01*
X126665019Y-45195702D01*
X126466195Y-45118678D01*
X126256610Y-45079500D01*
X126043390Y-45079500D01*
X125833804Y-45118678D01*
X125634980Y-45195702D01*
X125634975Y-45195705D01*
X125453699Y-45307946D01*
X125453692Y-45307952D01*
X125296135Y-45451586D01*
X125296131Y-45451589D01*
X125296128Y-45451593D01*
X125296125Y-45451597D01*
X125167635Y-45621743D01*
X125167630Y-45621752D01*
X125074206Y-45809375D01*
X125031343Y-45853037D01*
X124971002Y-45863167D01*
X124916231Y-45835895D01*
X124889958Y-45790869D01*
X124883430Y-45766506D01*
X124883429Y-45766505D01*
X124783605Y-45552432D01*
X124783601Y-45552424D01*
X124648113Y-45358926D01*
X124481073Y-45191886D01*
X124287577Y-45056399D01*
X124073489Y-44956569D01*
X123860000Y-44899364D01*
X123860000Y-45794498D01*
X123752315Y-45745320D01*
X123645763Y-45730000D01*
X123574237Y-45730000D01*
X123467685Y-45745320D01*
X123360000Y-45794498D01*
X123360000Y-44899364D01*
X123146505Y-44956570D01*
X122932432Y-45056394D01*
X122932424Y-45056398D01*
X122738926Y-45191886D01*
X122571886Y-45358926D01*
X122436398Y-45552424D01*
X122436394Y-45552432D01*
X122336570Y-45766505D01*
X122336569Y-45766507D01*
X122330040Y-45790873D01*
X122296715Y-45842186D01*
X122239593Y-45864111D01*
X122180493Y-45848274D01*
X122145793Y-45809374D01*
X122052372Y-45621756D01*
X122052369Y-45621751D01*
X122052366Y-45621745D01*
X121923872Y-45451593D01*
X121804231Y-45342525D01*
X121766307Y-45307952D01*
X121766300Y-45307946D01*
X121585024Y-45195705D01*
X121585019Y-45195702D01*
X121386195Y-45118678D01*
X121176610Y-45079500D01*
X120963390Y-45079500D01*
X120753804Y-45118678D01*
X120554980Y-45195702D01*
X120554975Y-45195705D01*
X120373699Y-45307946D01*
X120373692Y-45307952D01*
X120216135Y-45451586D01*
X120216131Y-45451589D01*
X120216128Y-45451593D01*
X120216125Y-45451597D01*
X120087635Y-45621743D01*
X120087630Y-45621752D01*
X119992596Y-45812608D01*
X119934244Y-46017688D01*
X119914571Y-46230000D01*
X119685429Y-46230000D01*
X119665756Y-46017690D01*
X119607405Y-45812611D01*
X119512366Y-45621745D01*
X119383872Y-45451593D01*
X119264231Y-45342525D01*
X119226307Y-45307952D01*
X119226300Y-45307946D01*
X119045024Y-45195705D01*
X119045019Y-45195702D01*
X118846195Y-45118678D01*
X118636610Y-45079500D01*
X118423390Y-45079500D01*
X118213804Y-45118678D01*
X118014980Y-45195702D01*
X118014975Y-45195705D01*
X117833699Y-45307946D01*
X117833692Y-45307952D01*
X117676135Y-45451586D01*
X117676131Y-45451589D01*
X117676128Y-45451593D01*
X117676125Y-45451597D01*
X117547635Y-45621743D01*
X117547630Y-45621752D01*
X117452596Y-45812608D01*
X117394244Y-46017688D01*
X117374571Y-46230000D01*
X117391312Y-46410674D01*
X117394244Y-46442310D01*
X117452595Y-46647389D01*
X117547634Y-46838255D01*
X117676128Y-47008407D01*
X117676135Y-47008413D01*
X117833692Y-47152047D01*
X117833699Y-47152053D01*
X117937389Y-47216255D01*
X118014981Y-47264298D01*
X118107837Y-47300270D01*
X118155268Y-47338922D01*
X118170922Y-47398071D01*
X118148819Y-47455124D01*
X118097698Y-47488211D01*
X118066512Y-47496567D01*
X118066505Y-47496570D01*
X117852432Y-47596394D01*
X117852424Y-47596398D01*
X117658926Y-47731886D01*
X117491886Y-47898926D01*
X117356398Y-48092424D01*
X117356394Y-48092432D01*
X117256570Y-48306505D01*
X117256569Y-48306507D01*
X117250040Y-48330873D01*
X117216715Y-48382186D01*
X117159593Y-48404111D01*
X117100493Y-48388274D01*
X117065793Y-48349374D01*
X116972372Y-48161756D01*
X116972369Y-48161751D01*
X116972366Y-48161745D01*
X116843872Y-47991593D01*
X116716119Y-47875130D01*
X116686307Y-47847952D01*
X116686300Y-47847946D01*
X116505024Y-47735705D01*
X116505019Y-47735702D01*
X116412161Y-47699729D01*
X116306198Y-47658679D01*
X116306197Y-47658678D01*
X116306195Y-47658678D01*
X116096610Y-47619500D01*
X115883390Y-47619500D01*
X115673804Y-47658678D01*
X115474980Y-47735702D01*
X115474975Y-47735705D01*
X115293699Y-47847946D01*
X115293692Y-47847952D01*
X115136135Y-47991586D01*
X115136131Y-47991589D01*
X115136128Y-47991593D01*
X115136125Y-47991597D01*
X115007635Y-48161743D01*
X115007630Y-48161752D01*
X114912596Y-48352608D01*
X114854244Y-48557688D01*
X114847059Y-48635232D01*
X114834571Y-48770000D01*
X114605429Y-48770000D01*
X114585756Y-48557690D01*
X114527405Y-48352611D01*
X114432366Y-48161745D01*
X114303872Y-47991593D01*
X114176119Y-47875130D01*
X114146307Y-47847952D01*
X114146300Y-47847946D01*
X113965024Y-47735705D01*
X113965019Y-47735702D01*
X113872161Y-47699729D01*
X113824730Y-47661077D01*
X113809076Y-47601928D01*
X113831179Y-47544874D01*
X113882303Y-47511787D01*
X113913487Y-47503431D01*
X114127577Y-47403600D01*
X114321073Y-47268113D01*
X114488113Y-47101073D01*
X114623600Y-46907577D01*
X114723431Y-46693488D01*
X114729958Y-46669130D01*
X114763281Y-46617815D01*
X114820402Y-46595888D01*
X114879503Y-46611723D01*
X114914206Y-46650624D01*
X115007630Y-46838248D01*
X115007632Y-46838252D01*
X115007634Y-46838255D01*
X115136128Y-47008407D01*
X115136135Y-47008413D01*
X115293692Y-47152047D01*
X115293699Y-47152053D01*
X115397389Y-47216255D01*
X115474981Y-47264298D01*
X115673802Y-47341321D01*
X115883390Y-47380500D01*
X116096610Y-47380500D01*
X116306198Y-47341321D01*
X116505019Y-47264298D01*
X116686302Y-47152052D01*
X116843872Y-47008407D01*
X116972366Y-46838255D01*
X117067405Y-46647389D01*
X117125756Y-46442310D01*
X117145429Y-46230000D01*
X117125756Y-46017690D01*
X117067405Y-45812611D01*
X116972366Y-45621745D01*
X116843872Y-45451593D01*
X116724231Y-45342525D01*
X116686307Y-45307952D01*
X116686300Y-45307946D01*
X116505024Y-45195705D01*
X116505019Y-45195702D01*
X116306195Y-45118678D01*
X116096610Y-45079500D01*
X115883390Y-45079500D01*
X115673804Y-45118678D01*
X115474980Y-45195702D01*
X115474975Y-45195705D01*
X115293699Y-45307946D01*
X115293692Y-45307952D01*
X115136135Y-45451586D01*
X115136131Y-45451589D01*
X115136128Y-45451593D01*
X115136125Y-45451597D01*
X115007635Y-45621743D01*
X115007630Y-45621752D01*
X114914206Y-45809375D01*
X114871343Y-45853037D01*
X114811002Y-45863167D01*
X114756231Y-45835895D01*
X114729958Y-45790869D01*
X114723430Y-45766506D01*
X114723429Y-45766505D01*
X114623605Y-45552432D01*
X114623601Y-45552424D01*
X114488113Y-45358926D01*
X114321073Y-45191886D01*
X114127577Y-45056399D01*
X113913489Y-44956569D01*
X113700000Y-44899364D01*
X113700000Y-45794498D01*
X113592315Y-45745320D01*
X113485763Y-45730000D01*
X113414237Y-45730000D01*
X113307685Y-45745320D01*
X113200000Y-45794498D01*
X113200000Y-44899364D01*
X112986505Y-44956570D01*
X112772432Y-45056394D01*
X112772424Y-45056398D01*
X112578926Y-45191886D01*
X112411886Y-45358926D01*
X112276398Y-45552424D01*
X112276394Y-45552432D01*
X112176570Y-45766505D01*
X112176569Y-45766507D01*
X112170040Y-45790873D01*
X112136715Y-45842186D01*
X112079593Y-45864111D01*
X112020493Y-45848274D01*
X111985793Y-45809374D01*
X111892372Y-45621756D01*
X111892369Y-45621751D01*
X111892366Y-45621745D01*
X111763872Y-45451593D01*
X111644231Y-45342525D01*
X111606307Y-45307952D01*
X111606300Y-45307946D01*
X111425024Y-45195705D01*
X111425019Y-45195702D01*
X111226195Y-45118678D01*
X111016610Y-45079500D01*
X110803390Y-45079500D01*
X110593804Y-45118678D01*
X110394980Y-45195702D01*
X110394975Y-45195705D01*
X110213699Y-45307946D01*
X110213692Y-45307952D01*
X110056135Y-45451586D01*
X110056131Y-45451589D01*
X110056128Y-45451593D01*
X110056125Y-45451597D01*
X109927635Y-45621743D01*
X109927630Y-45621751D01*
X109876405Y-45724628D01*
X109833543Y-45768290D01*
X109787784Y-45779500D01*
X109492216Y-45779500D01*
X109434025Y-45760593D01*
X109403595Y-45724628D01*
X109352369Y-45621751D01*
X109352368Y-45621750D01*
X109352366Y-45621745D01*
X109223872Y-45451593D01*
X109104231Y-45342525D01*
X109066307Y-45307952D01*
X109066300Y-45307946D01*
X108885024Y-45195705D01*
X108885019Y-45195702D01*
X108686195Y-45118678D01*
X108476610Y-45079500D01*
X108263390Y-45079500D01*
X108053804Y-45118678D01*
X107854980Y-45195702D01*
X107854975Y-45195705D01*
X107673699Y-45307946D01*
X107673692Y-45307952D01*
X107516135Y-45451586D01*
X107516131Y-45451589D01*
X107516128Y-45451593D01*
X107516125Y-45451597D01*
X107387635Y-45621743D01*
X107387630Y-45621752D01*
X107292596Y-45812608D01*
X107234244Y-46017688D01*
X107214571Y-46230000D01*
X104477422Y-46230000D01*
X104443664Y-46201168D01*
X104443656Y-46201162D01*
X104228862Y-46069535D01*
X104228856Y-46069532D01*
X103996112Y-45973127D01*
X103996113Y-45973127D01*
X103751146Y-45914316D01*
X103637306Y-45905357D01*
X103562882Y-45899500D01*
X103437118Y-45899500D01*
X103366671Y-45905044D01*
X103248853Y-45914316D01*
X103003886Y-45973127D01*
X102771143Y-46069532D01*
X102771137Y-46069535D01*
X102556343Y-46201162D01*
X102556335Y-46201168D01*
X102364785Y-46364767D01*
X102364767Y-46364785D01*
X102201168Y-46556335D01*
X102201162Y-46556343D01*
X102069535Y-46771137D01*
X102069532Y-46771143D01*
X101973127Y-47003886D01*
X101914316Y-47248853D01*
X101894551Y-47500000D01*
X100500500Y-47500000D01*
X100500500Y-47002984D01*
X100500681Y-46997007D01*
X100502665Y-46964201D01*
X100518362Y-46704688D01*
X100519801Y-46692837D01*
X100561952Y-46462827D01*
X100589321Y-46410678D01*
X102410678Y-44589321D01*
X102462827Y-44561952D01*
X102692837Y-44519801D01*
X102704688Y-44518362D01*
X102997008Y-44500681D01*
X103002985Y-44500500D01*
X103065892Y-44500500D01*
X161934108Y-44500500D01*
X161997015Y-44500500D01*
X162002992Y-44500681D01*
G37*
%TD.AperFunction*%
%TD*%
M02*
